
<svg class="animated" id="freepik_stories-nft" xmlns="http://www.w3.org/2000/svg" viewBox="0 0 500 500" version="1.1" xmlns:xlink="http://www.w3.org/1999/xlink" xmlns:svgjs="http://svgjs.com/svgjs"><g id="freepik--Shadow--inject-234" class="animable" style="transform-origin: 250px 416.24px;"><ellipse id="freepik--path--inject-234" cx="250" cy="416.24" rx="193.89" ry="11.32" style="fill: rgb(245, 245, 245); transform-origin: 250px 416.24px;" class="animable"></ellipse></g><g id="freepik--Coins--inject-234" class="animable" style="transform-origin: 139.985px 367.756px;"><path d="M184,384.06l-4.3,4.84a1.13,1.13,0,0,1-1.56.09l-21.58-19.2a1.1,1.1,0,0,1-.09-1.56l4.3-4.83a.93.93,0,0,1,.27-.22,1.09,1.09,0,0,1,1.29.13l21.58,19.19a1.09,1.09,0,0,1,.27,1.26A.78.78,0,0,1,184,384.06Z" style="fill: rgb(38, 50, 56); transform-origin: 170.232px 376.143px;" id="eldi85fgx6vlh" class="animable"></path><g id="eldk5sqd8t2jc"><path d="M184,384.06l-4.3,4.84a1.13,1.13,0,0,1-1.56.09l-21.58-19.2a1.1,1.1,0,0,1-.09-1.56l4.3-4.83a.93.93,0,0,1,.27-.22,1.09,1.09,0,0,1,1.29.13l21.58,19.19a1.09,1.09,0,0,1,.27,1.26A.78.78,0,0,1,184,384.06Z" style="fill: rgb(255, 255, 255); opacity: 0.5; transform-origin: 170.232px 376.143px;" class="animable"></path></g><g id="elog8k7ct4ebd"><path d="M178.45,387.56l3.91-4.39a.38.38,0,1,0-.56-.5l-3.91,4.4L176.63,386l3.91-4.4a.37.37,0,1,0-.55-.5l-3.92,4.4-1.26-1.12,3.91-4.4a.37.37,0,1,0-.55-.49l-3.92,4.39L173,382.71l3.92-4.4a.37.37,0,0,0-.56-.49l-3.91,4.4-1.27-1.12,3.92-4.4a.39.39,0,0,0,0-.53.38.38,0,0,0-.53,0l-3.91,4.4-1.26-1.12,3.91-4.4a.38.38,0,0,0,0-.53.39.39,0,0,0-.53,0L168.8,379l-1.26-1.12,3.91-4.4a.37.37,0,0,0-.56-.49l-3.91,4.4-1.26-1.12,3.91-4.4a.37.37,0,1,0-.55-.5l-3.92,4.4-1.26-1.12,3.91-4.4a.37.37,0,0,0,0-.53.37.37,0,0,0-.52,0l-3.92,4.4-1.23-1.1,0,0,3.91-4.4a.37.37,0,0,0,0-.52.37.37,0,0,0-.53,0l-3.69,4.14a1.09,1.09,0,0,1,.29-.77l2.63-3.1a1.09,1.09,0,0,0-.07-1.58l-3-2.7a1.13,1.13,0,0,0-1.58.08l-3.53,4.06a1.08,1.08,0,0,0,.07,1.55L178.1,389a1.14,1.14,0,0,0,1.59-.09l.11-.12Z" style="opacity: 0.1; transform-origin: 169.388px 376.543px;" class="animable"></path></g><g id="elg21rwfetagi"><path d="M184.14,383.76,161,363.18a1.09,1.09,0,0,1,1.29.13l21.58,19.19A1.09,1.09,0,0,1,184.14,383.76Z" style="fill: rgb(255, 255, 255); opacity: 0.3; transform-origin: 172.618px 373.393px;" class="animable"></path></g><path d="M119.51,407.51V414a1.1,1.1,0,0,1-1.1,1.1H89.53a1.11,1.11,0,0,1-1.11-1.1v-6.47a1,1,0,0,1,.06-.35,1.09,1.09,0,0,1,1-.76h28.88a1.11,1.11,0,0,1,1,.76A.83.83,0,0,1,119.51,407.51Z" style="fill: rgb(38, 50, 56); transform-origin: 103.965px 410.76px;" id="elap7szxaifk" class="animable"></path><g id="el1rz8yjpkfye"><path d="M119.51,407.51V414a1.1,1.1,0,0,1-1.1,1.1H89.53a1.11,1.11,0,0,1-1.11-1.1v-6.47a1,1,0,0,1,.06-.35,1.09,1.09,0,0,1,1-.76h28.88a1.11,1.11,0,0,1,1,.76A.83.83,0,0,1,119.51,407.51Z" style="fill: rgb(255, 255, 255); opacity: 0.5; transform-origin: 103.965px 410.76px;" class="animable"></path></g><g id="elyfufuwgomg"><path d="M117.72,413.79V407.9a.37.37,0,1,0-.74,0v5.89h-1.69V407.9a.38.38,0,0,0-.75,0v5.89h-1.68V407.9a.38.38,0,0,0-.75,0v5.89h-1.69V407.9a.37.37,0,1,0-.74,0v5.89H108V407.9a.38.38,0,0,0-.75,0v5.89h-1.68V407.9a.38.38,0,0,0-.75,0v5.89h-1.69V407.9a.37.37,0,0,0-.74,0v5.89h-1.69V407.9a.38.38,0,0,0-.75,0v5.89H98.26V407.9a.38.38,0,0,0-.75,0v5.89H95.82V407.9a.37.37,0,0,0-.74,0v5.55a1.06,1.06,0,0,1-.3-.77l-.1-4.07a1.09,1.09,0,0,0-1.09-1.13H89.52a1.14,1.14,0,0,0-1.13,1.11l.07,5.38a1.07,1.07,0,0,0,1.07,1.11H118.4a1.15,1.15,0,0,0,1.13-1.13v-.16Z" style="opacity: 0.1; transform-origin: 103.96px 411.28px;" class="animable"></path></g><g id="ela0phemfiz1s"><path d="M119.45,407.16h-31a1.09,1.09,0,0,1,1-.76h28.88A1.11,1.11,0,0,1,119.45,407.16Z" style="fill: rgb(255, 255, 255); opacity: 0.3; transform-origin: 103.95px 406.779px;" class="animable"></path></g><path d="M117.51,398.7v6.47a1.11,1.11,0,0,1-1.1,1.11H87.53a1.11,1.11,0,0,1-1.11-1.11V398.7a.93.93,0,0,1,.06-.34,1.08,1.08,0,0,1,1-.76h28.88a1.1,1.1,0,0,1,1,.76A.76.76,0,0,1,117.51,398.7Z" style="fill: rgb(38, 50, 56); transform-origin: 101.965px 401.94px;" id="elxj9brakokk" class="animable"></path><g id="el80um4t19er2"><path d="M117.51,398.7v6.47a1.11,1.11,0,0,1-1.1,1.11H87.53a1.11,1.11,0,0,1-1.11-1.11V398.7a.93.93,0,0,1,.06-.34,1.08,1.08,0,0,1,1-.76h28.88a1.1,1.1,0,0,1,1,.76A.76.76,0,0,1,117.51,398.7Z" style="fill: rgb(255, 255, 255); opacity: 0.5; transform-origin: 101.965px 401.94px;" class="animable"></path></g><g id="elfs2hoyulsmf"><path d="M115.72,405V399.1a.37.37,0,1,0-.74,0V405h-1.69V399.1a.38.38,0,1,0-.75,0V405h-1.68V399.1a.38.38,0,1,0-.75,0V405h-1.69V399.1a.37.37,0,1,0-.74,0V405H106V399.1a.38.38,0,1,0-.75,0V405h-1.68V399.1a.38.38,0,1,0-.75,0V405h-1.69V399.1a.37.37,0,1,0-.74,0V405H98.69V399.1a.38.38,0,1,0-.75,0V405H96.26V399.1a.38.38,0,1,0-.75,0V405H93.82V399.1a.37.37,0,1,0-.74,0v5.55a1.09,1.09,0,0,1-.3-.78l-.1-4.06a1.09,1.09,0,0,0-1.1-1.14H87.52a1.14,1.14,0,0,0-1.13,1.11l.07,5.38a1.07,1.07,0,0,0,1.07,1.11H116.4a1.15,1.15,0,0,0,1.13-1.12V405Z" style="opacity: 0.1; transform-origin: 101.96px 402.464px;" class="animable"></path></g><g id="elf74e681ap4"><path d="M117.45,398.36h-31a1.08,1.08,0,0,1,1-.76h28.88A1.1,1.1,0,0,1,117.45,398.36Z" style="fill: rgb(255, 255, 255); opacity: 0.3; transform-origin: 101.95px 397.979px;" class="animable"></path></g><path d="M117.51,389.9v6.47a1.1,1.1,0,0,1-1.1,1.1H87.53a1.1,1.1,0,0,1-1.11-1.1V389.9a1,1,0,0,1,.06-.35,1.09,1.09,0,0,1,1-.76h28.88a1.11,1.11,0,0,1,1,.76A.83.83,0,0,1,117.51,389.9Z" style="fill: rgb(38, 50, 56); transform-origin: 101.965px 393.13px;" id="elsirufjq6k3n" class="animable"></path><g id="el2ecw6bssuiz"><path d="M117.51,389.9v6.47a1.1,1.1,0,0,1-1.1,1.1H87.53a1.1,1.1,0,0,1-1.11-1.1V389.9a1,1,0,0,1,.06-.35,1.09,1.09,0,0,1,1-.76h28.88a1.11,1.11,0,0,1,1,.76A.83.83,0,0,1,117.51,389.9Z" style="fill: rgb(255, 255, 255); opacity: 0.5; transform-origin: 101.965px 393.13px;" class="animable"></path></g><g id="elytdfix8aoe"><path d="M115.72,396.18v-5.89a.37.37,0,1,0-.74,0v5.89h-1.69v-5.89a.38.38,0,0,0-.75,0v5.89h-1.68v-5.89a.38.38,0,0,0-.75,0v5.89h-1.69v-5.89a.37.37,0,1,0-.74,0v5.89H106v-5.89a.38.38,0,0,0-.75,0v5.89h-1.68v-5.89a.38.38,0,0,0-.75,0v5.89h-1.69v-5.89a.37.37,0,0,0-.74,0v5.89H98.69v-5.89a.38.38,0,0,0-.75,0v5.89H96.26v-5.89a.38.38,0,0,0-.75,0v5.89H93.82v-5.88a.37.37,0,0,0-.74,0v5.55a1.06,1.06,0,0,1-.3-.77l-.1-4.07a1.09,1.09,0,0,0-1.1-1.13H87.52A1.14,1.14,0,0,0,86.39,391l.07,5.38a1.07,1.07,0,0,0,1.07,1.11H116.4a1.15,1.15,0,0,0,1.13-1.13v-.16Z" style="opacity: 0.1; transform-origin: 101.96px 393.685px;" class="animable"></path></g><g id="ela3zmkvw15r9"><path d="M117.45,389.55h-31a1.09,1.09,0,0,1,1-.76h28.88A1.11,1.11,0,0,1,117.45,389.55Z" style="fill: rgb(255, 255, 255); opacity: 0.3; transform-origin: 101.95px 389.169px;" class="animable"></path></g><path d="M117.51,381.09v6.47a1.11,1.11,0,0,1-1.1,1.11H87.53a1.1,1.1,0,0,1-1.11-1.11v-6.47a.93.93,0,0,1,.06-.34,1.08,1.08,0,0,1,1-.76h28.88a1.1,1.1,0,0,1,1,.76A.76.76,0,0,1,117.51,381.09Z" style="fill: rgb(38, 50, 56); transform-origin: 101.965px 384.33px;" id="elbv05xy3sxki" class="animable"></path><g id="elt8anqr9pe1"><path d="M117.51,381.09v6.47a1.11,1.11,0,0,1-1.1,1.11H87.53a1.1,1.1,0,0,1-1.11-1.11v-6.47a.93.93,0,0,1,.06-.34,1.08,1.08,0,0,1,1-.76h28.88a1.1,1.1,0,0,1,1,.76A.76.76,0,0,1,117.51,381.09Z" style="fill: rgb(255, 255, 255); opacity: 0.5; transform-origin: 101.965px 384.33px;" class="animable"></path></g><g id="el0l5dn0ph9fzd"><path d="M115.72,387.37v-5.88a.37.37,0,1,0-.74,0v5.88h-1.69v-5.88a.38.38,0,1,0-.75,0v5.88h-1.68v-5.88a.38.38,0,1,0-.75,0v5.88h-1.69v-5.88a.37.37,0,1,0-.74,0v5.88H106v-5.88a.38.38,0,1,0-.75,0v5.88h-1.68v-5.88a.38.38,0,1,0-.75,0v5.88h-1.69v-5.88a.37.37,0,1,0-.74,0v5.88H98.69v-5.88a.38.38,0,1,0-.75,0v5.88H96.26v-5.88a.38.38,0,1,0-.75,0v5.88H93.82v-5.88a.37.37,0,1,0-.74,0V387a1.07,1.07,0,0,1-.3-.78l-.1-4.06a1.09,1.09,0,0,0-1.1-1.13H87.52a1.14,1.14,0,0,0-1.13,1.11l.07,5.38a1.07,1.07,0,0,0,1.07,1.11H116.4a1.15,1.15,0,0,0,1.13-1.13v-.17Z" style="opacity: 0.1; transform-origin: 101.96px 384.83px;" class="animable"></path></g><g id="el4i752oaza1d"><path d="M117.45,380.75h-31a1.08,1.08,0,0,1,1-.76h28.88A1.1,1.1,0,0,1,117.45,380.75Z" style="fill: rgb(255, 255, 255); opacity: 0.3; transform-origin: 101.95px 380.369px;" class="animable"></path></g><path d="M115.51,372.29v6.47a1.11,1.11,0,0,1-1.1,1.1H85.52a1.1,1.1,0,0,1-1.1-1.1v-6.47a1,1,0,0,1,.06-.35,1.08,1.08,0,0,1,1-.76h28.89a1.12,1.12,0,0,1,1,.76A.83.83,0,0,1,115.51,372.29Z" style="fill: rgb(38, 50, 56); transform-origin: 99.965px 375.52px;" id="elaa6oso5zvnk" class="animable"></path><g id="el1twfenr38nh"><path d="M115.51,372.29v6.47a1.11,1.11,0,0,1-1.1,1.1H85.52a1.1,1.1,0,0,1-1.1-1.1v-6.47a1,1,0,0,1,.06-.35,1.08,1.08,0,0,1,1-.76h28.89a1.12,1.12,0,0,1,1,.76A.83.83,0,0,1,115.51,372.29Z" style="fill: rgb(255, 255, 255); opacity: 0.5; transform-origin: 99.965px 375.52px;" class="animable"></path></g><g id="el0icsoq128lka"><path d="M113.72,378.57v-5.89a.38.38,0,0,0-.37-.37.37.37,0,0,0-.37.37v5.89h-1.69v-5.89a.38.38,0,0,0-.75,0v5.89h-1.69v-5.89a.37.37,0,0,0-.37-.37.38.38,0,0,0-.37.37v5.89h-1.69v-5.89a.38.38,0,0,0-.37-.37.37.37,0,0,0-.37.37v5.89H104v-5.89a.38.38,0,0,0-.75,0v5.89h-1.69v-5.89a.37.37,0,0,0-.37-.37.38.38,0,0,0-.37.37v5.89H99.12v-5.89a.38.38,0,0,0-.37-.37.37.37,0,0,0-.37.37v5.89H96.69v-5.89a.38.38,0,0,0-.75,0v5.89H94.25v-5.89a.37.37,0,0,0-.37-.37.38.38,0,0,0-.37.37v5.89H91.82v-5.88a.38.38,0,0,0-.37-.37.37.37,0,0,0-.37.37v5.55a1.06,1.06,0,0,1-.3-.77l-.1-4.06a1.09,1.09,0,0,0-1.1-1.14H85.52a1.14,1.14,0,0,0-1.13,1.11l.06,5.38a1.08,1.08,0,0,0,1.08,1.11H114.4a1.15,1.15,0,0,0,1.13-1.12v-.17Z" style="opacity: 0.1; transform-origin: 99.96px 376.07px;" class="animable"></path></g><g id="elyy11otu344"><path d="M115.45,371.94h-31a1.08,1.08,0,0,1,1-.76h28.89A1.12,1.12,0,0,1,115.45,371.94Z" style="fill: rgb(255, 255, 255); opacity: 0.3; transform-origin: 99.95px 371.559px;" class="animable"></path></g><path d="M117.51,363.48V370a1.11,1.11,0,0,1-1.1,1.11H87.53A1.1,1.1,0,0,1,86.42,370v-6.47a.93.93,0,0,1,.06-.34,1.08,1.08,0,0,1,1-.76h28.88a1.1,1.1,0,0,1,1,.76A.76.76,0,0,1,117.51,363.48Z" style="fill: rgb(38, 50, 56); transform-origin: 101.965px 366.77px;" id="els6vfb4db0r" class="animable"></path><g id="eli5pbh3p8sqq"><path d="M117.51,363.48V370a1.11,1.11,0,0,1-1.1,1.11H87.53A1.1,1.1,0,0,1,86.42,370v-6.47a.93.93,0,0,1,.06-.34,1.08,1.08,0,0,1,1-.76h28.88a1.1,1.1,0,0,1,1,.76A.76.76,0,0,1,117.51,363.48Z" style="fill: rgb(255, 255, 255); opacity: 0.5; transform-origin: 101.965px 366.77px;" class="animable"></path></g><g id="el6ox61i7d7r6"><path d="M115.72,369.77v-5.89a.37.37,0,0,0-.74,0v5.89h-1.69v-5.89a.38.38,0,0,0-.75,0v5.89h-1.68v-5.89a.38.38,0,0,0-.75,0v5.89h-1.69v-5.89a.37.37,0,1,0-.74,0v5.89H106v-5.89a.38.38,0,0,0-.75,0v5.89h-1.68v-5.89a.38.38,0,0,0-.75,0v5.89h-1.69v-5.89a.37.37,0,0,0-.74,0v5.89H98.69v-5.89a.38.38,0,0,0-.75,0v5.89H96.26v-5.89a.38.38,0,0,0-.75,0v5.89H93.82v-5.88a.37.37,0,0,0-.74,0v5.55a1.06,1.06,0,0,1-.3-.77l-.1-4.07a1.09,1.09,0,0,0-1.1-1.13H87.52a1.14,1.14,0,0,0-1.13,1.11l.07,5.38a1.07,1.07,0,0,0,1.07,1.11H116.4a1.15,1.15,0,0,0,1.13-1.13v-.16Z" style="opacity: 0.1; transform-origin: 101.96px 367.27px;" class="animable"></path></g><g id="eluhgf2pkgigq"><path d="M117.45,363.14h-31a1.08,1.08,0,0,1,1-.76h28.88A1.1,1.1,0,0,1,117.45,363.14Z" style="fill: rgb(255, 255, 255); opacity: 0.3; transform-origin: 101.95px 362.759px;" class="animable"></path></g><path d="M117.51,354.68v6.47a1.1,1.1,0,0,1-1.1,1.1H87.53a1.1,1.1,0,0,1-1.11-1.1v-6.47a.93.93,0,0,1,.06-.34,1.08,1.08,0,0,1,1-.76h28.88a1.1,1.1,0,0,1,1,.76A.76.76,0,0,1,117.51,354.68Z" style="fill: rgb(38, 50, 56); transform-origin: 101.965px 357.915px;" id="elautd7mwr5x8" class="animable"></path><g id="el7g8lm97t1l4"><path d="M117.51,354.68v6.47a1.1,1.1,0,0,1-1.1,1.1H87.53a1.1,1.1,0,0,1-1.11-1.1v-6.47a.93.93,0,0,1,.06-.34,1.08,1.08,0,0,1,1-.76h28.88a1.1,1.1,0,0,1,1,.76A.76.76,0,0,1,117.51,354.68Z" style="fill: rgb(255, 255, 255); opacity: 0.5; transform-origin: 101.965px 357.915px;" class="animable"></path></g><g id="elk1h26wz5uko"><path d="M115.72,361v-5.89a.37.37,0,0,0-.74,0V361h-1.69v-5.89a.38.38,0,0,0-.75,0V361h-1.68v-5.89a.38.38,0,0,0-.75,0V361h-1.69v-5.89a.37.37,0,0,0-.74,0V361H106v-5.89a.38.38,0,0,0-.75,0V361h-1.68v-5.89a.38.38,0,0,0-.75,0V361h-1.69v-5.89a.37.37,0,0,0-.74,0V361H98.69v-5.89a.38.38,0,0,0-.75,0V361H96.26v-5.89a.38.38,0,0,0-.75,0V361H93.82v-5.88a.37.37,0,0,0-.74,0v5.56a1.09,1.09,0,0,1-.3-.78l-.1-4.06a1.09,1.09,0,0,0-1.1-1.14H87.52a1.14,1.14,0,0,0-1.13,1.11l.07,5.38a1.07,1.07,0,0,0,1.07,1.11H116.4a1.15,1.15,0,0,0,1.13-1.12V361Z" style="opacity: 0.1; transform-origin: 101.96px 358.5px;" class="animable"></path></g><g id="elaz6zggnho1"><path d="M117.45,354.34h-31a1.08,1.08,0,0,1,1-.76h28.88A1.1,1.1,0,0,1,117.45,354.34Z" style="fill: rgb(255, 255, 255); opacity: 0.3; transform-origin: 101.95px 353.959px;" class="animable"></path></g><path d="M115.51,345.87v6.48a1.11,1.11,0,0,1-1.1,1.1H85.52a1.1,1.1,0,0,1-1.1-1.1v-6.48a1,1,0,0,1,.06-.34,1.07,1.07,0,0,1,1-.76h28.89a1.11,1.11,0,0,1,1,.76A.82.82,0,0,1,115.51,345.87Z" style="fill: rgb(38, 50, 56); transform-origin: 99.965px 349.11px;" id="elt6r0x9gcvz" class="animable"></path><g id="elezw6ynglkim"><path d="M115.51,345.87v6.48a1.11,1.11,0,0,1-1.1,1.1H85.52a1.1,1.1,0,0,1-1.1-1.1v-6.48a1,1,0,0,1,.06-.34,1.07,1.07,0,0,1,1-.76h28.89a1.11,1.11,0,0,1,1,.76A.82.82,0,0,1,115.51,345.87Z" style="fill: rgb(255, 255, 255); opacity: 0.5; transform-origin: 99.965px 349.11px;" class="animable"></path></g><g id="elqhdadx2h7d"><path d="M113.72,352.16v-5.89a.37.37,0,0,0-.37-.37.36.36,0,0,0-.37.37v5.89h-1.69v-5.89a.38.38,0,0,0-.75,0v5.89h-1.69v-5.89a.36.36,0,0,0-.37-.37.37.37,0,0,0-.37.37v5.89h-1.69v-5.89a.37.37,0,0,0-.37-.37.36.36,0,0,0-.37.37v5.89H104v-5.89a.38.38,0,0,0-.75,0v5.89h-1.69v-5.89a.36.36,0,0,0-.37-.37.37.37,0,0,0-.37.37v5.89H99.12v-5.89a.37.37,0,0,0-.37-.37.36.36,0,0,0-.37.37v5.89H96.69v-5.89a.38.38,0,0,0-.75,0v5.89H94.25v-5.89a.36.36,0,0,0-.37-.37.37.37,0,0,0-.37.37v5.89H91.82v-5.88a.37.37,0,0,0-.37-.37.36.36,0,0,0-.37.37v5.55a1.06,1.06,0,0,1-.3-.77l-.1-4.07a1.09,1.09,0,0,0-1.1-1.13H85.52A1.14,1.14,0,0,0,84.39,347l.06,5.38a1.08,1.08,0,0,0,1.08,1.11H114.4a1.16,1.16,0,0,0,1.13-1.13v-.16Z" style="opacity: 0.1; transform-origin: 99.96px 349.675px;" class="animable"></path></g><g id="elefi1wolzxtb"><path d="M115.45,345.53h-31a1.07,1.07,0,0,1,1-.76h28.89A1.11,1.11,0,0,1,115.45,345.53Z" style="fill: rgb(255, 255, 255); opacity: 0.3; transform-origin: 99.95px 345.149px;" class="animable"></path></g><path d="M117.51,337.07v6.47a1.11,1.11,0,0,1-1.1,1.11H87.53a1.11,1.11,0,0,1-1.11-1.11v-6.47a.93.93,0,0,1,.06-.34,1.08,1.08,0,0,1,1-.76h28.88a1.1,1.1,0,0,1,1,.76A.76.76,0,0,1,117.51,337.07Z" style="fill: rgb(38, 50, 56); transform-origin: 101.965px 340.31px;" id="eli534woe8ap" class="animable"></path><g id="elmq2p236aza"><path d="M117.51,337.07v6.47a1.11,1.11,0,0,1-1.1,1.11H87.53a1.11,1.11,0,0,1-1.11-1.11v-6.47a.93.93,0,0,1,.06-.34,1.08,1.08,0,0,1,1-.76h28.88a1.1,1.1,0,0,1,1,.76A.76.76,0,0,1,117.51,337.07Z" style="fill: rgb(255, 255, 255); opacity: 0.5; transform-origin: 101.965px 340.31px;" class="animable"></path></g><g id="elq23tdjrs0ua"><path d="M115.72,343.35v-5.88a.37.37,0,1,0-.74,0v5.88h-1.69v-5.88a.38.38,0,1,0-.75,0v5.88h-1.68v-5.88a.38.38,0,1,0-.75,0v5.88h-1.69v-5.88a.37.37,0,1,0-.74,0v5.88H106v-5.88a.38.38,0,1,0-.75,0v5.88h-1.68v-5.88a.38.38,0,1,0-.75,0v5.88h-1.69v-5.88a.37.37,0,1,0-.74,0v5.88H98.69v-5.88a.38.38,0,1,0-.75,0v5.88H96.26v-5.88a.38.38,0,1,0-.75,0v5.88H93.82v-5.88a.37.37,0,1,0-.74,0V343a1.09,1.09,0,0,1-.3-.78l-.1-4.06a1.09,1.09,0,0,0-1.1-1.14H87.52a1.14,1.14,0,0,0-1.13,1.11l.07,5.38a1.07,1.07,0,0,0,1.07,1.11H116.4a1.15,1.15,0,0,0,1.13-1.12v-.17Z" style="opacity: 0.1; transform-origin: 101.96px 340.82px;" class="animable"></path></g><g id="eli820amg1dsd"><path d="M117.45,336.73h-31a1.08,1.08,0,0,1,1-.76h28.88A1.1,1.1,0,0,1,117.45,336.73Z" style="fill: rgb(255, 255, 255); opacity: 0.3; transform-origin: 101.95px 336.349px;" class="animable"></path></g><path d="M119,319.06l2.06,6.13a1.12,1.12,0,0,1-.7,1.4L93,335.75a1.11,1.11,0,0,1-1.4-.7l-2-6.13a.85.85,0,0,1,0-.35,1.08,1.08,0,0,1,.74-1.05l27.4-9.16a1.11,1.11,0,0,1,1.23.39A.76.76,0,0,1,119,319.06Z" style="fill: rgb(38, 50, 56); transform-origin: 105.348px 327.056px;" id="elmvsla81hn8l" class="animable"></path><g id="elnbneg1o8bc"><path d="M119,319.06l2.06,6.13a1.12,1.12,0,0,1-.7,1.4L93,335.75a1.11,1.11,0,0,1-1.4-.7l-2-6.13a.85.85,0,0,1,0-.35,1.08,1.08,0,0,1,.74-1.05l27.4-9.16a1.11,1.11,0,0,1,1.23.39A.76.76,0,0,1,119,319.06Z" style="fill: rgb(255, 255, 255); opacity: 0.5; transform-origin: 105.348px 327.056px;" class="animable"></path></g><g id="elema75poq4g5"><path d="M119.34,325.58,117.47,320a.37.37,0,0,0-.47-.24.38.38,0,0,0-.24.47l1.87,5.59-1.6.53-1.87-5.58a.37.37,0,0,0-.47-.24.38.38,0,0,0-.23.48l1.86,5.58-1.6.53-1.87-5.58a.37.37,0,0,0-.7.24l1.87,5.58-1.61.54-1.86-5.59a.37.37,0,0,0-.71.24l1.87,5.58-1.6.54-1.87-5.59a.37.37,0,0,0-.47-.23.38.38,0,0,0-.24.47l1.87,5.59-1.6.53-1.87-5.58a.37.37,0,0,0-.47-.24.36.36,0,0,0-.23.47l1.86,5.59-1.6.53-1.87-5.58a.37.37,0,1,0-.7.23l1.86,5.59-1.6.53-1.86-5.58a.37.37,0,0,0-.47-.23.36.36,0,0,0-.24.47l1.87,5.58-1.6.54L99,326.17a.37.37,0,0,0-.71.24l1.87,5.58-1.57.53h0l-1.87-5.58a.36.36,0,0,0-.47-.23.37.37,0,0,0-.24.47l1.77,5.26a1,1,0,0,1-.53-.64L95.85,328a1.1,1.1,0,0,0-1.4-.73l-3.86,1.29a1.14,1.14,0,0,0-.72,1.41L91.64,335a1.08,1.08,0,0,0,1.37.72l27.38-9.16a1.16,1.16,0,0,0,.72-1.43l0-.15Z" style="opacity: 0.1; transform-origin: 105.49px 327.757px;" class="animable"></path></g><g id="elmrmgjmwkf7"><path d="M118.88,318.75l-29.37,9.82a1.08,1.08,0,0,1,.74-1.05l27.4-9.16A1.11,1.11,0,0,1,118.88,318.75Z" style="fill: rgb(255, 255, 255); opacity: 0.3; transform-origin: 104.195px 323.438px;" class="animable"></path></g><path d="M155.53,407.51V414a1.1,1.1,0,0,1-1.1,1.1H125.55a1.1,1.1,0,0,1-1.1-1.1v-6.47a.83.83,0,0,1,.06-.35,1.08,1.08,0,0,1,1-.76h28.88a1.12,1.12,0,0,1,1,.76A1,1,0,0,1,155.53,407.51Z" style="fill: rgb(38, 50, 56); transform-origin: 139.99px 410.76px;" id="elk89qladjmna" class="animable"></path><g id="eloql3p2qc747"><path d="M155.53,407.51V414a1.1,1.1,0,0,1-1.1,1.1H125.55a1.1,1.1,0,0,1-1.1-1.1v-6.47a.83.83,0,0,1,.06-.35,1.08,1.08,0,0,1,1-.76h28.88a1.12,1.12,0,0,1,1,.76A1,1,0,0,1,155.53,407.51Z" style="fill: rgb(255, 255, 255); opacity: 0.5; transform-origin: 139.99px 410.76px;" class="animable"></path></g><g id="elccfcxai0y9"><path d="M153.74,413.79V407.9a.37.37,0,0,0-.37-.37.38.38,0,0,0-.37.37v5.89h-1.69V407.9a.38.38,0,0,0-.37-.37.37.37,0,0,0-.37.37v5.89h-1.69V407.9a.38.38,0,0,0-.75,0v5.89h-1.69V407.9a.37.37,0,0,0-.37-.37.38.38,0,0,0-.37.37v5.89H144V407.9a.38.38,0,0,0-.37-.37.37.37,0,0,0-.37.37v5.89h-1.69V407.9a.38.38,0,0,0-.75,0v5.89h-1.68V407.9a.38.38,0,0,0-.75,0v5.89h-1.69V407.9a.38.38,0,0,0-.37-.37.37.37,0,0,0-.37.37v5.89h-1.69V407.9a.38.38,0,0,0-.75,0v5.89h-1.68V407.9a.38.38,0,0,0-.75,0v5.55a1.11,1.11,0,0,1-.3-.77l-.09-4.07a1.1,1.1,0,0,0-1.1-1.13h-4.07a1.15,1.15,0,0,0-1.13,1.11l.07,5.38a1.07,1.07,0,0,0,1.07,1.11h28.87a1.15,1.15,0,0,0,1.13-1.13v-.16Z" style="opacity: 0.1; transform-origin: 139.97px 411.28px;" class="animable"></path></g><g id="el19w19lz37nr"><path d="M155.48,407.16h-31a1.08,1.08,0,0,1,1-.76h28.88A1.12,1.12,0,0,1,155.48,407.16Z" style="fill: rgb(255, 255, 255); opacity: 0.3; transform-origin: 139.98px 406.779px;" class="animable"></path></g><path d="M153.53,398.7v6.47a1.11,1.11,0,0,1-1.1,1.11H123.55a1.11,1.11,0,0,1-1.11-1.11V398.7a.93.93,0,0,1,.06-.34,1.09,1.09,0,0,1,1-.76h28.88a1.09,1.09,0,0,1,1,.76A.76.76,0,0,1,153.53,398.7Z" style="fill: rgb(38, 50, 56); transform-origin: 137.985px 401.94px;" id="elh4eb8ibl2ec" class="animable"></path><g id="el8demtzz1fxx"><path d="M153.53,398.7v6.47a1.11,1.11,0,0,1-1.1,1.11H123.55a1.11,1.11,0,0,1-1.11-1.11V398.7a.93.93,0,0,1,.06-.34,1.09,1.09,0,0,1,1-.76h28.88a1.09,1.09,0,0,1,1,.76A.76.76,0,0,1,153.53,398.7Z" style="fill: rgb(255, 255, 255); opacity: 0.5; transform-origin: 137.985px 401.94px;" class="animable"></path></g><g id="eltpp70odw0xf"><path d="M151.74,405V399.1a.37.37,0,1,0-.74,0V405h-1.69V399.1a.38.38,0,1,0-.75,0V405h-1.68V399.1a.38.38,0,1,0-.75,0V405h-1.69V399.1a.37.37,0,1,0-.74,0V405H142V399.1a.38.38,0,1,0-.75,0V405h-1.68V399.1a.38.38,0,1,0-.75,0V405h-1.69V399.1a.37.37,0,1,0-.74,0V405h-1.69V399.1a.38.38,0,0,0-.37-.38.37.37,0,0,0-.37.38V405h-1.69V399.1a.38.38,0,1,0-.75,0V405h-1.69V399.1a.37.37,0,0,0-.37-.38.38.38,0,0,0-.37.38v5.55a1.09,1.09,0,0,1-.3-.78l-.1-4.06a1.09,1.09,0,0,0-1.09-1.14h-4.07a1.14,1.14,0,0,0-1.13,1.11l.07,5.38a1.07,1.07,0,0,0,1.07,1.11h28.87a1.15,1.15,0,0,0,1.13-1.12V405Z" style="opacity: 0.1; transform-origin: 137.97px 402.464px;" class="animable"></path></g><g id="el2lrtuvo3vjz"><path d="M153.47,398.36h-31a1.09,1.09,0,0,1,1-.76h28.88A1.09,1.09,0,0,1,153.47,398.36Z" style="fill: rgb(255, 255, 255); opacity: 0.3; transform-origin: 137.97px 397.979px;" class="animable"></path></g><path d="M155.53,389.9v6.47a1.1,1.1,0,0,1-1.1,1.1H125.55a1.1,1.1,0,0,1-1.1-1.1V389.9a.83.83,0,0,1,.06-.35,1.08,1.08,0,0,1,1-.76h28.88a1.12,1.12,0,0,1,1,.76A1,1,0,0,1,155.53,389.9Z" style="fill: rgb(38, 50, 56); transform-origin: 139.99px 393.13px;" id="elos1v0y6q3xc" class="animable"></path><g id="elapgs8edyxuc"><path d="M155.53,389.9v6.47a1.1,1.1,0,0,1-1.1,1.1H125.55a1.1,1.1,0,0,1-1.1-1.1V389.9a.83.83,0,0,1,.06-.35,1.08,1.08,0,0,1,1-.76h28.88a1.12,1.12,0,0,1,1,.76A1,1,0,0,1,155.53,389.9Z" style="fill: rgb(255, 255, 255); opacity: 0.5; transform-origin: 139.99px 393.13px;" class="animable"></path></g><g id="elkd50xozm92"><path d="M153.74,396.18v-5.89a.37.37,0,0,0-.37-.37.38.38,0,0,0-.37.37v5.89h-1.69v-5.89a.38.38,0,0,0-.37-.37.37.37,0,0,0-.37.37v5.89h-1.69v-5.89a.38.38,0,0,0-.75,0v5.89h-1.69v-5.89a.37.37,0,0,0-.37-.37.38.38,0,0,0-.37.37v5.89H144v-5.89a.38.38,0,0,0-.37-.37.37.37,0,0,0-.37.37v5.89h-1.69v-5.89a.38.38,0,0,0-.75,0v5.89h-1.68v-5.89a.38.38,0,0,0-.75,0v5.89h-1.69v-5.89a.38.38,0,0,0-.37-.37.37.37,0,0,0-.37.37v5.89h-1.69v-5.89a.38.38,0,0,0-.75,0v5.89h-1.68v-5.88a.38.38,0,0,0-.75,0v5.55a1.11,1.11,0,0,1-.3-.77l-.09-4.07a1.1,1.1,0,0,0-1.1-1.13h-4.07a1.15,1.15,0,0,0-1.13,1.11l.07,5.38a1.07,1.07,0,0,0,1.07,1.11h28.87a1.15,1.15,0,0,0,1.13-1.13v-.16Z" style="opacity: 0.1; transform-origin: 139.97px 393.68px;" class="animable"></path></g><g id="elal6swvn0cn7"><path d="M155.48,389.55h-31a1.08,1.08,0,0,1,1-.76h28.88A1.12,1.12,0,0,1,155.48,389.55Z" style="fill: rgb(255, 255, 255); opacity: 0.3; transform-origin: 139.98px 389.169px;" class="animable"></path></g><path d="M153.53,381.09v6.47a1.11,1.11,0,0,1-1.1,1.11H123.55a1.11,1.11,0,0,1-1.11-1.11v-6.47a.93.93,0,0,1,.06-.34,1.09,1.09,0,0,1,1-.76h28.88a1.09,1.09,0,0,1,1,.76A.76.76,0,0,1,153.53,381.09Z" style="fill: rgb(38, 50, 56); transform-origin: 137.985px 384.33px;" id="elxz8na05qynn" class="animable"></path><g id="elzu00om32ey"><path d="M153.53,381.09v6.47a1.11,1.11,0,0,1-1.1,1.11H123.55a1.11,1.11,0,0,1-1.11-1.11v-6.47a.93.93,0,0,1,.06-.34,1.09,1.09,0,0,1,1-.76h28.88a1.09,1.09,0,0,1,1,.76A.76.76,0,0,1,153.53,381.09Z" style="fill: rgb(255, 255, 255); opacity: 0.5; transform-origin: 137.985px 384.33px;" class="animable"></path></g><g id="eld5vhc9e25fv"><path d="M151.74,387.37v-5.88a.37.37,0,1,0-.74,0v5.88h-1.69v-5.88a.38.38,0,1,0-.75,0v5.88h-1.68v-5.88a.38.38,0,1,0-.75,0v5.88h-1.69v-5.88a.37.37,0,1,0-.74,0v5.88H142v-5.88a.38.38,0,1,0-.75,0v5.88h-1.68v-5.88a.38.38,0,1,0-.75,0v5.88h-1.69v-5.88a.37.37,0,1,0-.74,0v5.88h-1.69v-5.88a.38.38,0,0,0-.37-.38.37.37,0,0,0-.37.38v5.88h-1.69v-5.88a.38.38,0,1,0-.75,0v5.88h-1.69v-5.88a.37.37,0,0,0-.37-.38.38.38,0,0,0-.37.38V387a1.07,1.07,0,0,1-.3-.78l-.1-4.06a1.08,1.08,0,0,0-1.09-1.13h-4.07a1.14,1.14,0,0,0-1.13,1.11l.07,5.38a1.07,1.07,0,0,0,1.07,1.11h28.87a1.15,1.15,0,0,0,1.13-1.13v-.17Z" style="opacity: 0.1; transform-origin: 137.97px 384.83px;" class="animable"></path></g><g id="eld5qt32chgx9"><path d="M153.47,380.75h-31a1.09,1.09,0,0,1,1-.76h28.88A1.09,1.09,0,0,1,153.47,380.75Z" style="fill: rgb(255, 255, 255); opacity: 0.3; transform-origin: 137.97px 380.369px;" class="animable"></path></g><path d="M158.54,372.29v6.47a1.11,1.11,0,0,1-1.11,1.1H128.55a1.1,1.1,0,0,1-1.1-1.1v-6.47a.83.83,0,0,1,.06-.35,1.08,1.08,0,0,1,1-.76h28.88a1.12,1.12,0,0,1,1,.76A1,1,0,0,1,158.54,372.29Z" style="fill: rgb(38, 50, 56); transform-origin: 142.995px 375.52px;" id="el8m8zcjhk3of" class="animable"></path><g id="eld5mejzgczww"><path d="M158.54,372.29v6.47a1.11,1.11,0,0,1-1.11,1.1H128.55a1.1,1.1,0,0,1-1.1-1.1v-6.47a.83.83,0,0,1,.06-.35,1.08,1.08,0,0,1,1-.76h28.88a1.12,1.12,0,0,1,1,.76A1,1,0,0,1,158.54,372.29Z" style="fill: rgb(255, 255, 255); opacity: 0.5; transform-origin: 142.995px 375.52px;" class="animable"></path></g><g id="elx5tzrnygv"><path d="M156.75,378.57v-5.89a.38.38,0,0,0-.75,0v5.89h-1.69v-5.89a.37.37,0,0,0-.74,0v5.89h-1.69v-5.89a.38.38,0,0,0-.75,0v5.89h-1.68v-5.89a.38.38,0,0,0-.75,0v5.89H147v-5.89a.37.37,0,1,0-.74,0v5.89h-1.69v-5.89a.38.38,0,0,0-.75,0v5.89h-1.68v-5.89a.38.38,0,0,0-.75,0v5.89h-1.69v-5.89a.37.37,0,0,0-.74,0v5.89h-1.69v-5.89a.38.38,0,0,0-.75,0v5.89h-1.68v-5.88a.38.38,0,0,0-.75,0v5.55a1.11,1.11,0,0,1-.3-.77l-.09-4.06a1.11,1.11,0,0,0-1.1-1.14h-4.06a1.14,1.14,0,0,0-1.13,1.11l.06,5.38a1.08,1.08,0,0,0,1.08,1.11h28.86a1.16,1.16,0,0,0,1.14-1.12v-.17Z" style="opacity: 0.1; transform-origin: 142.98px 376.07px;" class="animable"></path></g><g id="elyjrxik6hzn"><path d="M158.48,371.94h-31a1.08,1.08,0,0,1,1-.76h28.88A1.12,1.12,0,0,1,158.48,371.94Z" style="fill: rgb(255, 255, 255); opacity: 0.3; transform-origin: 142.98px 371.559px;" class="animable"></path></g><path d="M155.53,363.48V370a1.11,1.11,0,0,1-1.1,1.11H125.55a1.1,1.1,0,0,1-1.1-1.11v-6.47a.76.76,0,0,1,.06-.34,1.07,1.07,0,0,1,1-.76h28.88a1.11,1.11,0,0,1,1,.76A.93.93,0,0,1,155.53,363.48Z" style="fill: rgb(38, 50, 56); transform-origin: 139.989px 366.77px;" id="elsxje7n06bzm" class="animable"></path><g id="elv9v7ahp28l"><path d="M155.53,363.48V370a1.11,1.11,0,0,1-1.1,1.11H125.55a1.1,1.1,0,0,1-1.1-1.11v-6.47a.76.76,0,0,1,.06-.34,1.07,1.07,0,0,1,1-.76h28.88a1.11,1.11,0,0,1,1,.76A.93.93,0,0,1,155.53,363.48Z" style="fill: rgb(255, 255, 255); opacity: 0.5; transform-origin: 139.989px 366.77px;" class="animable"></path></g><g id="elbyo0knfxthr"><path d="M153.74,369.77v-5.89a.36.36,0,0,0-.37-.37.37.37,0,0,0-.37.37v5.89h-1.69v-5.89a.37.37,0,0,0-.37-.37.36.36,0,0,0-.37.37v5.89h-1.69v-5.89a.38.38,0,0,0-.75,0v5.89h-1.69v-5.89a.36.36,0,0,0-.37-.37.37.37,0,0,0-.37.37v5.89H144v-5.89a.37.37,0,0,0-.37-.37.36.36,0,0,0-.37.37v5.89h-1.69v-5.89a.38.38,0,0,0-.75,0v5.89h-1.68v-5.89a.38.38,0,0,0-.75,0v5.89h-1.69v-5.89a.37.37,0,0,0-.37-.37.36.36,0,0,0-.37.37v5.89h-1.69v-5.89a.38.38,0,0,0-.75,0v5.89h-1.68v-5.88a.38.38,0,0,0-.75,0v5.55a1.11,1.11,0,0,1-.3-.77l-.09-4.07a1.1,1.1,0,0,0-1.1-1.13h-4.07a1.14,1.14,0,0,0-1.13,1.11l.07,5.38a1.07,1.07,0,0,0,1.07,1.11h28.87a1.15,1.15,0,0,0,1.13-1.13v-.16Z" style="opacity: 0.1; transform-origin: 139.97px 367.27px;" class="animable"></path></g><g id="el7tnmgac16i6"><path d="M155.48,363.14h-31a1.07,1.07,0,0,1,1-.76h28.88A1.11,1.11,0,0,1,155.48,363.14Z" style="fill: rgb(255, 255, 255); opacity: 0.3; transform-origin: 139.98px 362.759px;" class="animable"></path></g><path d="M155.53,354.68v6.47a1.1,1.1,0,0,1-1.1,1.1H125.55a1.1,1.1,0,0,1-1.1-1.1v-6.47a.76.76,0,0,1,.06-.34,1.07,1.07,0,0,1,1-.76h28.88a1.11,1.11,0,0,1,1,.76A.93.93,0,0,1,155.53,354.68Z" style="fill: rgb(38, 50, 56); transform-origin: 139.989px 357.915px;" id="elcur6o14knzq" class="animable"></path><g id="elnzk0u84awd"><path d="M155.53,354.68v6.47a1.1,1.1,0,0,1-1.1,1.1H125.55a1.1,1.1,0,0,1-1.1-1.1v-6.47a.76.76,0,0,1,.06-.34,1.07,1.07,0,0,1,1-.76h28.88a1.11,1.11,0,0,1,1,.76A.93.93,0,0,1,155.53,354.68Z" style="fill: rgb(255, 255, 255); opacity: 0.5; transform-origin: 139.989px 357.915px;" class="animable"></path></g><g id="ell6lle7emq9"><path d="M153.74,361v-5.89a.37.37,0,0,0-.37-.37.38.38,0,0,0-.37.37V361h-1.69v-5.89a.38.38,0,0,0-.37-.37.37.37,0,0,0-.37.37V361h-1.69v-5.89a.38.38,0,0,0-.75,0V361h-1.69v-5.89a.37.37,0,0,0-.37-.37.38.38,0,0,0-.37.37V361H144v-5.89a.38.38,0,0,0-.37-.37.37.37,0,0,0-.37.37V361h-1.69v-5.89a.38.38,0,0,0-.75,0V361h-1.68v-5.89a.38.38,0,0,0-.75,0V361h-1.69v-5.89a.38.38,0,0,0-.37-.37.37.37,0,0,0-.37.37V361h-1.69v-5.89a.38.38,0,0,0-.75,0V361h-1.68v-5.88a.38.38,0,0,0-.75,0v5.56a1.13,1.13,0,0,1-.3-.78l-.09-4.06a1.11,1.11,0,0,0-1.1-1.14h-4.07a1.15,1.15,0,0,0-1.13,1.11l.07,5.38a1.07,1.07,0,0,0,1.07,1.11h28.87a1.15,1.15,0,0,0,1.13-1.12V361Z" style="opacity: 0.1; transform-origin: 139.97px 358.5px;" class="animable"></path></g><g id="elmmvdfygcjef"><path d="M155.48,354.34h-31a1.07,1.07,0,0,1,1-.76h28.88A1.11,1.11,0,0,1,155.48,354.34Z" style="fill: rgb(255, 255, 255); opacity: 0.3; transform-origin: 139.98px 353.959px;" class="animable"></path></g><path d="M153.53,345.87v6.48a1.1,1.1,0,0,1-1.1,1.1H123.55a1.11,1.11,0,0,1-1.11-1.1v-6.48a1,1,0,0,1,.06-.34,1.09,1.09,0,0,1,1-.76h28.88a1.09,1.09,0,0,1,1,.76A.82.82,0,0,1,153.53,345.87Z" style="fill: rgb(38, 50, 56); transform-origin: 137.985px 349.11px;" id="elcqct2regzqg" class="animable"></path><g id="eluacdmdup2mb"><path d="M153.53,345.87v6.48a1.1,1.1,0,0,1-1.1,1.1H123.55a1.11,1.11,0,0,1-1.11-1.1v-6.48a1,1,0,0,1,.06-.34,1.09,1.09,0,0,1,1-.76h28.88a1.09,1.09,0,0,1,1,.76A.82.82,0,0,1,153.53,345.87Z" style="fill: rgb(255, 255, 255); opacity: 0.5; transform-origin: 137.985px 349.11px;" class="animable"></path></g><g id="elzqflb1369po"><path d="M151.74,352.16v-5.89a.37.37,0,0,0-.74,0v5.89h-1.69v-5.89a.38.38,0,0,0-.75,0v5.89h-1.68v-5.89a.38.38,0,0,0-.75,0v5.89h-1.69v-5.89a.37.37,0,0,0-.74,0v5.89H142v-5.89a.38.38,0,0,0-.75,0v5.89h-1.68v-5.89a.38.38,0,0,0-.75,0v5.89h-1.69v-5.89a.37.37,0,1,0-.74,0v5.89h-1.69v-5.89a.37.37,0,0,0-.37-.37.36.36,0,0,0-.37.37v5.89h-1.69v-5.89a.38.38,0,0,0-.75,0v5.89h-1.69v-5.88a.36.36,0,0,0-.37-.37.37.37,0,0,0-.37.37v5.55a1.06,1.06,0,0,1-.3-.77l-.1-4.07a1.09,1.09,0,0,0-1.09-1.13h-4.07a1.14,1.14,0,0,0-1.13,1.11l.07,5.38a1.07,1.07,0,0,0,1.07,1.11h28.87a1.15,1.15,0,0,0,1.13-1.13v-.16Z" style="opacity: 0.1; transform-origin: 137.97px 349.66px;" class="animable"></path></g><g id="el6baz9g8l2jy"><path d="M153.47,345.53h-31a1.09,1.09,0,0,1,1-.76h28.88A1.09,1.09,0,0,1,153.47,345.53Z" style="fill: rgb(255, 255, 255); opacity: 0.3; transform-origin: 137.97px 345.149px;" class="animable"></path></g><path d="M153.53,337.07v6.47a1.11,1.11,0,0,1-1.1,1.11H123.55a1.11,1.11,0,0,1-1.11-1.11v-6.47a.93.93,0,0,1,.06-.34,1.09,1.09,0,0,1,1-.76h28.88a1.09,1.09,0,0,1,1,.76A.76.76,0,0,1,153.53,337.07Z" style="fill: rgb(38, 50, 56); transform-origin: 137.985px 340.31px;" id="elez77iawmp1a" class="animable"></path><g id="elzr3t55iurqg"><path d="M153.53,337.07v6.47a1.11,1.11,0,0,1-1.1,1.11H123.55a1.11,1.11,0,0,1-1.11-1.11v-6.47a.93.93,0,0,1,.06-.34,1.09,1.09,0,0,1,1-.76h28.88a1.09,1.09,0,0,1,1,.76A.76.76,0,0,1,153.53,337.07Z" style="fill: rgb(255, 255, 255); opacity: 0.5; transform-origin: 137.985px 340.31px;" class="animable"></path></g><g id="elnxpqn483rvp"><path d="M151.74,343.35v-5.88a.37.37,0,1,0-.74,0v5.88h-1.69v-5.88a.38.38,0,1,0-.75,0v5.88h-1.68v-5.88a.38.38,0,1,0-.75,0v5.88h-1.69v-5.88a.37.37,0,1,0-.74,0v5.88H142v-5.88a.38.38,0,1,0-.75,0v5.88h-1.68v-5.88a.38.38,0,1,0-.75,0v5.88h-1.69v-5.88a.37.37,0,1,0-.74,0v5.88h-1.69v-5.88a.38.38,0,0,0-.37-.38.37.37,0,0,0-.37.38v5.88h-1.69v-5.88a.38.38,0,1,0-.75,0v5.88h-1.69v-5.88a.37.37,0,0,0-.37-.38.38.38,0,0,0-.37.38V343a1.09,1.09,0,0,1-.3-.78l-.1-4.06a1.09,1.09,0,0,0-1.09-1.14h-4.07a1.14,1.14,0,0,0-1.13,1.11l.07,5.38a1.07,1.07,0,0,0,1.07,1.11h28.87a1.15,1.15,0,0,0,1.13-1.12v-.17Z" style="opacity: 0.1; transform-origin: 137.97px 340.82px;" class="animable"></path></g><g id="els93vuw2jit"><path d="M153.47,336.73h-31a1.09,1.09,0,0,1,1-.76h28.88A1.09,1.09,0,0,1,153.47,336.73Z" style="fill: rgb(255, 255, 255); opacity: 0.3; transform-origin: 137.97px 336.349px;" class="animable"></path></g><path d="M149.53,328.27v6.47a1.11,1.11,0,0,1-1.1,1.1H119.55a1.1,1.1,0,0,1-1.11-1.1v-6.47a1,1,0,0,1,.06-.35,1.09,1.09,0,0,1,1-.76h28.88a1.11,1.11,0,0,1,1,.76A.83.83,0,0,1,149.53,328.27Z" style="fill: rgb(38, 50, 56); transform-origin: 133.985px 331.5px;" id="eldqe92phewif" class="animable"></path><g id="elm1wopwouwt"><path d="M149.53,328.27v6.47a1.11,1.11,0,0,1-1.1,1.1H119.55a1.1,1.1,0,0,1-1.11-1.1v-6.47a1,1,0,0,1,.06-.35,1.09,1.09,0,0,1,1-.76h28.88a1.11,1.11,0,0,1,1,.76A.83.83,0,0,1,149.53,328.27Z" style="fill: rgb(255, 255, 255); opacity: 0.5; transform-origin: 133.985px 331.5px;" class="animable"></path></g><g id="eloanoz5l67t"><path d="M147.74,334.55v-5.89a.38.38,0,0,0-.37-.37.37.37,0,0,0-.37.37v5.89h-1.69v-5.89a.38.38,0,0,0-.75,0v5.89h-1.69v-5.89a.37.37,0,0,0-.37-.37.38.38,0,0,0-.37.37v5.89h-1.69v-5.89a.38.38,0,0,0-.37-.37.37.37,0,0,0-.37.37v5.89H138v-5.89a.38.38,0,0,0-.75,0v5.89h-1.69v-5.89a.37.37,0,0,0-.37-.37.38.38,0,0,0-.37.37v5.89h-1.69v-5.89a.38.38,0,0,0-.37-.37.37.37,0,0,0-.37.37v5.89h-1.69v-5.89a.38.38,0,0,0-.75,0v5.89h-1.69v-5.89a.37.37,0,0,0-.37-.37.38.38,0,0,0-.37.37v5.89h-1.69v-5.88a.38.38,0,0,0-.37-.37.37.37,0,0,0-.37.37v5.55a1.06,1.06,0,0,1-.3-.77l-.1-4.07a1.09,1.09,0,0,0-1.1-1.13h-4.06a1.14,1.14,0,0,0-1.13,1.11l.07,5.38a1.07,1.07,0,0,0,1.07,1.11h28.87a1.16,1.16,0,0,0,1.13-1.13v-.16Z" style="opacity: 0.1; transform-origin: 133.97px 332.05px;" class="animable"></path></g><g id="eli4gvvcijh4"><path d="M149.47,327.92h-31a1.09,1.09,0,0,1,1-.76h28.88A1.11,1.11,0,0,1,149.47,327.92Z" style="fill: rgb(255, 255, 255); opacity: 0.3; transform-origin: 133.97px 327.539px;" class="animable"></path></g><path d="M155.53,319.46v6.47a1.11,1.11,0,0,1-1.1,1.11H125.55a1.11,1.11,0,0,1-1.1-1.11v-6.47a.76.76,0,0,1,.06-.34,1.07,1.07,0,0,1,1-.76h28.88a1.11,1.11,0,0,1,1,.76A.93.93,0,0,1,155.53,319.46Z" style="fill: rgb(38, 50, 56); transform-origin: 139.989px 322.7px;" id="elzmk9isvat1m" class="animable"></path><g id="elncsozl60829"><path d="M155.53,319.46v6.47a1.11,1.11,0,0,1-1.1,1.11H125.55a1.11,1.11,0,0,1-1.1-1.11v-6.47a.76.76,0,0,1,.06-.34,1.07,1.07,0,0,1,1-.76h28.88a1.11,1.11,0,0,1,1,.76A.93.93,0,0,1,155.53,319.46Z" style="fill: rgb(255, 255, 255); opacity: 0.5; transform-origin: 139.989px 322.7px;" class="animable"></path></g><g id="elbwuv32or4b"><path d="M153.74,325.74v-5.88a.37.37,0,0,0-.37-.38.38.38,0,0,0-.37.38v5.88h-1.69v-5.88a.38.38,0,0,0-.37-.38.37.37,0,0,0-.37.38v5.88h-1.69v-5.88a.38.38,0,1,0-.75,0v5.88h-1.69v-5.88a.37.37,0,0,0-.37-.38.38.38,0,0,0-.37.38v5.88H144v-5.88a.38.38,0,0,0-.37-.38.37.37,0,0,0-.37.38v5.88h-1.69v-5.88a.38.38,0,1,0-.75,0v5.88h-1.68v-5.88a.38.38,0,1,0-.75,0v5.88h-1.69v-5.88a.38.38,0,0,0-.37-.38.37.37,0,0,0-.37.38v5.88h-1.69v-5.88a.38.38,0,1,0-.75,0v5.88h-1.68v-5.88a.38.38,0,1,0-.75,0v5.55a1.11,1.11,0,0,1-.3-.78l-.09-4.06a1.11,1.11,0,0,0-1.1-1.14h-4.07a1.15,1.15,0,0,0-1.13,1.11l.07,5.38a1.07,1.07,0,0,0,1.07,1.11h28.87a1.15,1.15,0,0,0,1.13-1.12v-.17Z" style="opacity: 0.1; transform-origin: 139.97px 323.224px;" class="animable"></path></g><g id="elnn10n5f7rcc"><path d="M155.48,319.12h-31a1.07,1.07,0,0,1,1-.76h28.88A1.11,1.11,0,0,1,155.48,319.12Z" style="fill: rgb(255, 255, 255); opacity: 0.3; transform-origin: 139.98px 318.739px;" class="animable"></path></g><path d="M195.56,407.51V414a1.11,1.11,0,0,1-1.1,1.1H165.57a1.1,1.1,0,0,1-1.1-1.1v-6.47a.83.83,0,0,1,.06-.35,1.08,1.08,0,0,1,1-.76h28.89a1.12,1.12,0,0,1,1,.76A1,1,0,0,1,195.56,407.51Z" style="fill: rgb(38, 50, 56); transform-origin: 180.015px 410.76px;" id="els8joct94r9" class="animable"></path><g id="elrt5tcsd3x6b"><path d="M195.56,407.51V414a1.11,1.11,0,0,1-1.1,1.1H165.57a1.1,1.1,0,0,1-1.1-1.1v-6.47a.83.83,0,0,1,.06-.35,1.08,1.08,0,0,1,1-.76h28.89a1.12,1.12,0,0,1,1,.76A1,1,0,0,1,195.56,407.51Z" style="fill: rgb(255, 255, 255); opacity: 0.5; transform-origin: 180.015px 410.76px;" class="animable"></path></g><g id="eluhs3f9c5o07"><path d="M193.77,413.79V407.9a.38.38,0,0,0-.75,0v5.89h-1.68V407.9a.38.38,0,0,0-.75,0v5.89H188.9V407.9a.37.37,0,0,0-.74,0v5.89h-1.69V407.9a.38.38,0,0,0-.75,0v5.89H184V407.9a.38.38,0,0,0-.75,0v5.89H181.6V407.9a.37.37,0,1,0-.74,0v5.89h-1.69V407.9a.38.38,0,0,0-.75,0v5.89h-1.68V407.9a.38.38,0,0,0-.75,0v5.89H174.3V407.9a.37.37,0,0,0-.74,0v5.89h-1.69V407.9a.38.38,0,0,0-.75,0v5.55a1.06,1.06,0,0,1-.29-.77l-.1-4.07a1.1,1.1,0,0,0-1.1-1.13h-4.06a1.14,1.14,0,0,0-1.13,1.11l.06,5.38a1.08,1.08,0,0,0,1.08,1.11h28.87a1.16,1.16,0,0,0,1.13-1.13v-.16Z" style="opacity: 0.1; transform-origin: 180.01px 411.28px;" class="animable"></path></g><g id="elnugc60xkifc"><path d="M195.5,407.16h-31a1.08,1.08,0,0,1,1-.76h28.89A1.12,1.12,0,0,1,195.5,407.16Z" style="fill: rgb(255, 255, 255); opacity: 0.3; transform-origin: 180px 406.779px;" class="animable"></path></g><path d="M193.56,398.7v6.47a1.12,1.12,0,0,1-1.11,1.11H163.57a1.11,1.11,0,0,1-1.1-1.11V398.7a.76.76,0,0,1,.06-.34,1.07,1.07,0,0,1,1-.76h28.88a1.11,1.11,0,0,1,1.05.76A.93.93,0,0,1,193.56,398.7Z" style="fill: rgb(38, 50, 56); transform-origin: 178.014px 401.94px;" id="el8dd6rvbrjxh" class="animable"></path><g id="elfm8l8kad4hk"><path d="M193.56,398.7v6.47a1.12,1.12,0,0,1-1.11,1.11H163.57a1.11,1.11,0,0,1-1.1-1.11V398.7a.76.76,0,0,1,.06-.34,1.07,1.07,0,0,1,1-.76h28.88a1.11,1.11,0,0,1,1.05.76A.93.93,0,0,1,193.56,398.7Z" style="fill: rgb(255, 255, 255); opacity: 0.5; transform-origin: 178.014px 401.94px;" class="animable"></path></g><g id="elpjv0d32dxj"><path d="M191.77,405V399.1a.38.38,0,1,0-.75,0V405h-1.69V399.1a.37.37,0,0,0-.37-.38.38.38,0,0,0-.37.38V405H186.9V399.1a.38.38,0,0,0-.37-.38.37.37,0,0,0-.37.38V405h-1.69V399.1a.38.38,0,1,0-.75,0V405H182V399.1a.37.37,0,0,0-.37-.38.38.38,0,0,0-.37.38V405H179.6V399.1a.38.38,0,0,0-.37-.38.37.37,0,0,0-.37.38V405h-1.69V399.1a.38.38,0,1,0-.75,0V405h-1.69V399.1a.37.37,0,0,0-.37-.38.38.38,0,0,0-.37.38V405H172.3V399.1a.38.38,0,0,0-.37-.38.37.37,0,0,0-.37.38V405h-1.69V399.1a.38.38,0,1,0-.75,0v5.55a1.08,1.08,0,0,1-.29-.78l-.1-4.06a1.11,1.11,0,0,0-1.1-1.14h-4.06a1.14,1.14,0,0,0-1.13,1.11l.06,5.38a1.08,1.08,0,0,0,1.08,1.11h28.87a1.15,1.15,0,0,0,1.13-1.12V405Z" style="opacity: 0.1; transform-origin: 178.01px 402.464px;" class="animable"></path></g><g id="elqjfy2suhrc"><path d="M193.5,398.36h-31a1.07,1.07,0,0,1,1-.76h28.88A1.11,1.11,0,0,1,193.5,398.36Z" style="fill: rgb(255, 255, 255); opacity: 0.3; transform-origin: 178px 397.979px;" class="animable"></path></g><path d="M193.56,389.9v6.47a1.11,1.11,0,0,1-1.11,1.1H163.57a1.1,1.1,0,0,1-1.1-1.1V389.9a.83.83,0,0,1,.06-.35,1.08,1.08,0,0,1,1-.76h28.88a1.12,1.12,0,0,1,1.05.76A1,1,0,0,1,193.56,389.9Z" style="fill: rgb(38, 50, 56); transform-origin: 178.015px 393.13px;" id="el8etw3fn322r" class="animable"></path><g id="ellrzum1epwn"><path d="M193.56,389.9v6.47a1.11,1.11,0,0,1-1.11,1.1H163.57a1.1,1.1,0,0,1-1.1-1.1V389.9a.83.83,0,0,1,.06-.35,1.08,1.08,0,0,1,1-.76h28.88a1.12,1.12,0,0,1,1.05.76A1,1,0,0,1,193.56,389.9Z" style="fill: rgb(255, 255, 255); opacity: 0.5; transform-origin: 178.015px 393.13px;" class="animable"></path></g><g id="el0xgquiuwp93"><path d="M191.77,396.18v-5.89a.38.38,0,0,0-.75,0v5.89h-1.69v-5.89a.37.37,0,0,0-.37-.37.38.38,0,0,0-.37.37v5.89H186.9v-5.89a.38.38,0,0,0-.37-.37.37.37,0,0,0-.37.37v5.89h-1.69v-5.89a.38.38,0,0,0-.75,0v5.89H182v-5.89a.37.37,0,0,0-.37-.37.38.38,0,0,0-.37.37v5.89H179.6v-5.89a.38.38,0,0,0-.37-.37.37.37,0,0,0-.37.37v5.89h-1.69v-5.89a.38.38,0,0,0-.75,0v5.89h-1.69v-5.89a.37.37,0,0,0-.37-.37.38.38,0,0,0-.37.37v5.89H172.3v-5.89a.38.38,0,0,0-.37-.37.37.37,0,0,0-.37.37v5.89h-1.69v-5.88a.38.38,0,0,0-.75,0v5.55a1.06,1.06,0,0,1-.29-.77l-.1-4.07a1.1,1.1,0,0,0-1.1-1.13h-4.06a1.14,1.14,0,0,0-1.13,1.11l.06,5.38a1.08,1.08,0,0,0,1.08,1.11h28.87a1.16,1.16,0,0,0,1.13-1.13v-.16Z" style="opacity: 0.1; transform-origin: 178.01px 393.68px;" class="animable"></path></g><g id="elw0sard3uj0i"><path d="M193.5,389.55h-31a1.08,1.08,0,0,1,1-.76h28.88A1.12,1.12,0,0,1,193.5,389.55Z" style="fill: rgb(255, 255, 255); opacity: 0.3; transform-origin: 178px 389.169px;" class="animable"></path></g><g id="elfxef2l0gf1q"><circle cx="122.92" cy="399.56" r="15.52" style="fill: rgb(38, 50, 56); transform-origin: 122.92px 399.56px; transform: rotate(-8.51deg);" class="animable"></circle></g><g id="elltn5ek3vi2g"><circle cx="122.92" cy="399.56" r="15.52" style="fill: rgb(255, 255, 255); opacity: 0.3; transform-origin: 122.92px 399.56px; transform: rotate(-8.51deg);" class="animable"></circle></g><g id="el3ibtg3g6rzg"><path d="M123.44,403.94c.58-.78.15-1.67-.61-2.66l-2.1,2.84C122,404.81,122.93,404.63,123.44,403.94Z" style="fill: rgb(255, 255, 255); opacity: 0.3; transform-origin: 122.219px 402.918px;" class="animable"></path></g><g id="el2e74b8urxs3"><path d="M122.61,395.44c-.57.77-.14,1.63.59,2.59l2.11-2.86C124,394.51,123.13,394.73,122.61,395.44Z" style="fill: rgb(255, 255, 255); opacity: 0.3; transform-origin: 123.829px 396.403px;" class="animable"></path></g><g id="elnomh14lqzn"><path d="M133.57,407.44A13.25,13.25,0,1,0,115,410.21,13.24,13.24,0,0,0,133.57,407.44Zm-16.78-.75,1.32-1.78a8.69,8.69,0,0,1-3-4.24l1.92-1.08a7.62,7.62,0,0,0,2.31,3.59l2.37-3.21c-1.46-1.75-2.94-3.74-1.29-6,1.21-1.64,3.45-2.18,6.13-.57l1.34-1.82,1.32,1-1.32,1.78a8.47,8.47,0,0,1,2.53,3.39l-1.85,1.13a8.23,8.23,0,0,0-2-2.79l-2.4,3.24c1.46,1.75,3,3.75,1.34,6-1.21,1.63-3.46,2.16-6.17.55l-1.33,1.8Z" style="fill: rgb(255, 255, 255); opacity: 0.3; transform-origin: 122.905px 399.579px;" class="animable"></path></g></g><g id="freepik--Lines--inject-234" class="animable" style="transform-origin: 312.946px 224.493px;"><g id="el4ds1rd5hsit"><rect x="218.37" y="165.51" width="1" height="128.55" style="fill: rgb(64, 123, 255); transform-origin: 218.87px 229.785px; transform: rotate(-0.06deg);" class="animable"></rect></g><path d="M407.09,180.73h0l-94.79-8L218.77,166a.5.5,0,0,1-.19-.94l89.75-45.89a.5.5,0,0,1,.49,0l98.53,60.6a.48.48,0,0,1,.21.58A.49.49,0,0,1,407.09,180.73ZM220.63,165.14l91.71,6.58,92.7,7.83-96.5-59.35Z" style="fill: rgb(64, 123, 255); transform-origin: 312.952px 149.918px;" id="elwgygd0jgza" class="animable"></path><polygon points="393.88 329.88 393.02 329.43 246.8 251.56 246.73 251.38 218.33 165.67 219.28 165.36 247.62 250.87 392.63 328.08 379.37 229.91 311.82 172.47 311.8 172.26 308.06 119.67 309.06 119.59 312.78 171.97 380.31 229.39 380.33 229.58 393.88 329.88" style="fill: rgb(64, 123, 255); transform-origin: 306.105px 224.735px;" id="elfhdjng51rsk" class="animable"></polygon><path d="M393.16,329.47,218.84,294.55a.5.5,0,0,1-.32-.76l28.27-42.85a.57.57,0,0,1,.34-.22l132.38-21.53L406.65,180l.88.49-27.26,49.42a.48.48,0,0,1-.36.25L247.5,251.68l-27.74,42,173.59,34.77Z" style="fill: rgb(64, 123, 255); transform-origin: 312.985px 254.735px;" id="elduqs0ej6x1a" class="animable"></path><g id="el85qzmhxwibd"><rect x="228.27" y="211.09" width="102.76" height="1" style="fill: rgb(64, 123, 255); transform-origin: 279.65px 211.59px; transform: rotate(-50.47deg);" class="animable"></rect></g><g id="ely97i5dq8cg8"><g style="opacity: 0.4; transform-origin: 312.946px 224.493px;" class="animable"><g id="el88il0kt3ajx"><rect x="218.37" y="165.51" width="1" height="128.55" style="fill: rgb(255, 255, 255); transform-origin: 218.87px 229.785px; transform: rotate(-0.06deg);" class="animable"></rect></g><path d="M407.09,180.73h0l-94.79-8L218.77,166a.5.5,0,0,1-.19-.94l89.75-45.89a.5.5,0,0,1,.49,0l98.53,60.6a.48.48,0,0,1,.21.58A.49.49,0,0,1,407.09,180.73ZM220.63,165.14l91.71,6.58,92.7,7.83-96.5-59.35Z" style="fill: rgb(255, 255, 255); transform-origin: 312.952px 149.918px;" id="elu1i93b4784a" class="animable"></path><polygon points="393.88 329.88 393.02 329.43 246.8 251.56 246.73 251.38 218.33 165.67 219.28 165.36 247.62 250.87 392.63 328.08 379.37 229.91 311.82 172.47 311.8 172.26 308.06 119.67 309.06 119.59 312.78 171.97 380.31 229.39 380.33 229.58 393.88 329.88" style="fill: rgb(255, 255, 255); transform-origin: 306.105px 224.735px;" id="el3ubrschvbli" class="animable"></polygon><path d="M393.16,329.47,218.84,294.55a.5.5,0,0,1-.32-.76l28.27-42.85a.57.57,0,0,1,.34-.22l132.38-21.53L406.65,180l.88.49-27.26,49.42a.48.48,0,0,1-.36.25L247.5,251.68l-27.74,42,173.59,34.77Z" style="fill: rgb(255, 255, 255); transform-origin: 312.985px 254.735px;" id="elv2d9m9d4w5" class="animable"></path><g id="el4qed52kha9o"><rect x="228.27" y="211.09" width="102.76" height="1" style="fill: rgb(255, 255, 255); transform-origin: 279.65px 211.59px; transform: rotate(-50.47deg);" class="animable"></rect></g></g></g><path d="M248.9,251.22a2,2,0,1,1-2-2A2,2,0,0,1,248.9,251.22Z" style="fill: rgb(64, 123, 255); transform-origin: 246.9px 251.22px;" id="eldhry77jazbi" class="animable"></path><circle cx="312.35" cy="171.96" r="1.96" style="fill: rgb(64, 123, 255); transform-origin: 312.35px 171.96px;" id="el7wdyjwbek4l" class="animable"></circle><circle cx="379.55" cy="229.86" r="1.96" style="fill: rgb(64, 123, 255); transform-origin: 379.55px 229.86px;" id="elkunm8uao7y" class="animable"></circle></g><g id="freepik--Elements--inject-234" class="animable" style="transform-origin: 311.11px 226px;"><polygon points="405.44 318.79 405.44 348.87 377.07 348.87 377.07 312.1 398.76 312.1 405.44 318.79" style="fill: rgb(64, 123, 255); transform-origin: 391.255px 330.485px;" id="el4xu1uw2ewga" class="animable"></polygon><polygon points="409.44 315.79 409.44 345.87 381.07 345.87 381.07 309.1 402.76 309.1 409.44 315.79" style="fill: rgb(64, 123, 255); transform-origin: 395.255px 327.485px;" id="el4m01602vdr4" class="animable"></polygon><g id="eldtdgwhgbogu"><polygon points="409.44 315.79 409.44 345.87 381.07 345.87 381.07 309.1 402.76 309.1 409.44 315.79" style="fill: rgb(255, 255, 255); opacity: 0.7; transform-origin: 395.255px 327.485px;" class="animable"></polygon></g><polygon points="409.44 315.79 402.76 315.79 402.76 309.1 409.44 315.79" style="fill: rgb(64, 123, 255); transform-origin: 406.1px 312.445px;" id="elrd9b2wmcqk" class="animable"></polygon><g id="el1fawiv7hcs8i"><polygon points="409.44 315.79 402.76 315.79 402.76 309.1 409.44 315.79" style="fill: rgb(255, 255, 255); opacity: 0.4; transform-origin: 406.1px 312.445px;" class="animable"></polygon></g><g id="el62172zwce8"><g style="opacity: 0.2; transform-origin: 395.255px 327.485px;" class="animable"><rect x="386.88" y="318.05" width="16.75" height="1" id="el4iu6mjv5cp3" class="animable" style="transform-origin: 395.255px 318.55px;"></rect><rect x="386.88" y="322.52" width="16.75" height="1" id="elpwc6rk9gpc8" class="animable" style="transform-origin: 395.255px 323.02px;"></rect><rect x="386.88" y="326.98" width="16.75" height="1" id="ell3o3uas57u" class="animable" style="transform-origin: 395.255px 327.48px;"></rect><rect x="386.88" y="331.45" width="16.75" height="1" id="elwk9evvjm0qc" class="animable" style="transform-origin: 395.255px 331.95px;"></rect><rect x="386.88" y="335.92" width="12.75" height="1" id="elijh624t7ucn" class="animable" style="transform-origin: 393.255px 336.42px;"></rect></g></g><rect x="388.21" y="165.4" width="37.76" height="29.66" rx="5.62" style="fill: rgb(64, 123, 255); transform-origin: 407.09px 180.23px;" id="el0896y2ztz7n9" class="animable"></rect><polygon points="398.87 173.92 398.87 186.53 415.31 180.22 398.87 173.92" style="fill: rgb(255, 255, 255); transform-origin: 407.09px 180.225px;" id="elohapuozp5gh" class="animable"></polygon><rect x="292.06" y="103.13" width="32.99" height="32.99" style="fill: rgb(64, 123, 255); transform-origin: 308.555px 119.625px;" id="el7sd9xxd8zoq" class="animable"></rect><g id="el7bbefl6etzf"><rect x="292.06" y="103.13" width="32.99" height="32.99" style="fill: rgb(255, 255, 255); opacity: 0.7; transform-origin: 308.555px 119.625px;" class="animable"></rect></g><path d="M314,112.81l-3.9-2-1.51-.8V124.8a4.38,4.38,0,0,0-1.93-.42c-1.9,0-3.44,1.1-3.44,2.46s1.54,2.46,3.44,2.46,3.44-1.1,3.45-2.46h0V114.9l3.9,1.82Z" style="fill: rgb(64, 123, 255); transform-origin: 308.615px 119.655px;" id="elkeufux5bf4" class="animable"></path><rect x="196.25" y="147.8" width="45.1" height="35.42" style="fill: rgb(64, 123, 255); transform-origin: 218.8px 165.51px;" id="ele41vl2pj13l" class="animable"></rect><g id="el2easbpcic9g"><rect x="196.25" y="147.8" width="45.1" height="35.42" style="fill: rgb(255, 255, 255); opacity: 0.7; transform-origin: 218.8px 165.51px;" class="animable"></rect></g><g id="eldezjtv3ukfu"><rect x="204.09" y="145.96" width="29.42" height="39.1" style="fill: rgb(64, 123, 255); transform-origin: 218.8px 165.51px; transform: rotate(90deg);" class="animable"></rect></g><g id="eln46azvzge8"><polygon points="199.25 174.42 210.89 166.4 216.96 171.93 230.93 161.78 238.35 168.1 238.35 180.22 199.25 180.22 199.25 174.42" style="fill: rgb(255, 255, 255); opacity: 0.4; transform-origin: 218.8px 171px;" class="animable"></polygon></g><path d="M213.13,159.34a3.76,3.76,0,1,1-3.76-3.76A3.76,3.76,0,0,1,213.13,159.34Z" style="fill: rgb(255, 255, 255); transform-origin: 209.37px 159.34px;" id="eluwcns4zjo38" class="animable"></path><rect x="200.1" y="274.61" width="36.9" height="36.9" style="fill: rgb(64, 123, 255); transform-origin: 218.55px 293.06px;" id="elk23vwx0m76b" class="animable"></rect><g id="el62p5ryxrpgh"><rect x="200.1" y="274.61" width="36.9" height="36.9" style="fill: rgb(255, 255, 255); opacity: 0.7; transform-origin: 218.55px 293.06px;" class="animable"></rect></g><g id="elnl1gv9ut9uj"><rect x="209.47" y="271.97" width="18.15" height="30.07" style="fill: rgb(64, 123, 255); transform-origin: 218.545px 287.005px; transform: rotate(90deg);" class="animable"></rect></g><g id="eluskz445i55j"><polygon points="203.51 293.85 212.46 287.68 217.13 291.94 227.87 284.13 233.58 288.99 233.58 296.08 203.51 296.08 203.51 293.85" style="fill: rgb(255, 255, 255); opacity: 0.4; transform-origin: 218.545px 290.105px;" class="animable"></polygon></g><path d="M214.18,282.25a2.89,2.89,0,1,1-2.89-2.89A2.89,2.89,0,0,1,214.18,282.25Z" style="fill: rgb(255, 255, 255); transform-origin: 211.29px 282.25px;" id="elp36w6kiasno" class="animable"></path><path d="M215.08,304.11h1.49v3.38a5.41,5.41,0,0,1-3.32,1.08,4.37,4.37,0,1,1,0-8.73,4.42,4.42,0,0,1,3.41,1.38l-1,1a3.16,3.16,0,0,0-2.34-1,3,3,0,1,0,0,6,3.5,3.5,0,0,0,1.75-.44Z" style="fill: rgb(64, 123, 255); transform-origin: 212.666px 304.205px;" id="el3ydfegm0kc7" class="animable"></path><path d="M218.64,300h1.57v8.49h-1.57Z" style="fill: rgb(64, 123, 255); transform-origin: 219.425px 304.245px;" id="elz11hkgfit" class="animable"></path><path d="M224.07,301.29v2.58h4.1v1.33h-4.1v3.25H222.5V300h6.19v1.33Z" style="fill: rgb(64, 123, 255); transform-origin: 225.595px 304.225px;" id="el2q8oslvjank" class="animable"></path></g><g id="freepik--Platform--inject-234" class="animable" style="transform-origin: 307.565px 274.81px;"><path d="M282.38,225h0a1.44,1.44,0,0,1-1.44-1.44V155.47a1.45,1.45,0,0,1,1.44-1.44h0a1.44,1.44,0,0,1,1.44,1.44v68.07A1.43,1.43,0,0,1,282.38,225Z" style="fill: rgb(64, 123, 255); transform-origin: 282.38px 189.515px;" id="elotv7v193ssn" class="animable"></path><path d="M282.38,329.72h0a1.45,1.45,0,0,1-1.44-1.44V260.21a1.44,1.44,0,0,1,1.44-1.44h0a1.43,1.43,0,0,1,1.44,1.44v68.07A1.44,1.44,0,0,1,282.38,329.72Z" style="fill: rgb(64, 123, 255); transform-origin: 282.38px 294.245px;" id="el2nkzus5k59l" class="animable"></path><path d="M305.76,206.11h0a1.45,1.45,0,0,1-1.44-1.44V136.6a1.44,1.44,0,0,1,1.44-1.44h0a1.43,1.43,0,0,1,1.44,1.44v68.07A1.44,1.44,0,0,1,305.76,206.11Z" style="fill: rgb(64, 123, 255); transform-origin: 305.76px 170.635px;" id="el57ybuc9za67" class="animable"></path><path d="M329.88,243.93h0a1.43,1.43,0,0,1-1.44-1.44V174.42a1.44,1.44,0,0,1,1.44-1.44h0a1.45,1.45,0,0,1,1.44,1.44v68.07A1.44,1.44,0,0,1,329.88,243.93Z" style="fill: rgb(64, 123, 255); transform-origin: 329.88px 208.455px;" id="elwuxw429wokq" class="animable"></path><path d="M346.8,383.22h0a1.44,1.44,0,0,1-1.44-1.44V313.71a1.45,1.45,0,0,1,1.44-1.44h0a1.44,1.44,0,0,1,1.44,1.44v68.07A1.43,1.43,0,0,1,346.8,383.22Z" style="fill: rgb(64, 123, 255); transform-origin: 346.8px 347.745px;" id="el6yfdnkuv609" class="animable"></path><path d="M346.8,289.4h0a1.45,1.45,0,0,1-1.44-1.44v-8a1.45,1.45,0,0,1,1.44-1.44h0a1.44,1.44,0,0,1,1.44,1.44v8A1.44,1.44,0,0,1,346.8,289.4Z" style="fill: rgb(64, 123, 255); transform-origin: 346.8px 283.96px;" id="elszluvz2mvdh" class="animable"></path><path d="M326.44,317.73h0a1.45,1.45,0,0,1-1.44-1.44v-8a1.45,1.45,0,0,1,1.44-1.44h0a1.44,1.44,0,0,1,1.44,1.44v8A1.44,1.44,0,0,1,326.44,317.73Z" style="fill: rgb(64, 123, 255); transform-origin: 326.44px 312.29px;" id="elq7s9t8a2bx" class="animable"></path><path d="M305.76,261.13h0a1.45,1.45,0,0,1-1.44-1.44v-8a1.45,1.45,0,0,1,1.44-1.44h0a1.44,1.44,0,0,1,1.44,1.44v8A1.44,1.44,0,0,1,305.76,261.13Z" style="fill: rgb(64, 123, 255); transform-origin: 305.76px 255.69px;" id="el26ww1oz0jdz" class="animable"></path><path d="M268.33,192.3h0a1.43,1.43,0,0,1-1.44-1.44v-8a1.43,1.43,0,0,1,1.44-1.44h0a1.43,1.43,0,0,1,1.44,1.44v8A1.43,1.43,0,0,1,268.33,192.3Z" style="fill: rgb(64, 123, 255); transform-origin: 268.33px 186.86px;" id="el4j1mufasny9" class="animable"></path><path d="M305.76,295.43h0a1.44,1.44,0,0,1-1.44-1.44v-8a1.44,1.44,0,0,1,1.44-1.44h0A1.43,1.43,0,0,1,307.2,286v8A1.43,1.43,0,0,1,305.76,295.43Z" style="fill: rgb(64, 123, 255); transform-origin: 305.76px 289.99px;" id="elnojqp7in6nm" class="animable"></path><path d="M325,372.6h0a1.45,1.45,0,0,1-1.44-1.44v-8a1.45,1.45,0,0,1,1.44-1.44h0a1.44,1.44,0,0,1,1.44,1.44v8A1.44,1.44,0,0,1,325,372.6Z" style="fill: rgb(64, 123, 255); transform-origin: 325px 367.16px;" id="elf37fsq7m2t4" class="animable"></path><path d="M346.8,222.45h0a1.44,1.44,0,0,1-1.44-1.44V152.94a1.45,1.45,0,0,1,1.44-1.44h0a1.44,1.44,0,0,1,1.44,1.44V221A1.43,1.43,0,0,1,346.8,222.45Z" style="fill: rgb(64, 123, 255); transform-origin: 346.8px 186.975px;" id="elu8yue2trcyd" class="animable"></path><path d="M268.33,388.56h0a1.43,1.43,0,0,1-1.44-1.44V319.06a1.43,1.43,0,0,1,1.44-1.44h0a1.43,1.43,0,0,1,1.44,1.44v68.06A1.43,1.43,0,0,1,268.33,388.56Z" style="fill: rgb(64, 123, 255); transform-origin: 268.33px 353.09px;" id="el7tg6pmx3fc8" class="animable"></path><path d="M305.76,402.61h0a1.44,1.44,0,0,1-1.44-1.44V333.1a1.45,1.45,0,0,1,1.44-1.44h0a1.44,1.44,0,0,1,1.44,1.44v68.07A1.43,1.43,0,0,1,305.76,402.61Z" style="fill: rgb(64, 123, 255); transform-origin: 305.76px 367.135px;" id="elvl5mtaz44k" class="animable"></path><g id="el4phjjbwlw6v"><g style="opacity: 0.7; transform-origin: 307.565px 268.885px;" class="animable"><path d="M282.38,225h0a1.44,1.44,0,0,1-1.44-1.44V155.47a1.45,1.45,0,0,1,1.44-1.44h0a1.44,1.44,0,0,1,1.44,1.44v68.07A1.43,1.43,0,0,1,282.38,225Z" style="fill: rgb(255, 255, 255); transform-origin: 282.38px 189.515px;" id="ela5jaf6lfavc" class="animable"></path><path d="M282.38,329.72h0a1.45,1.45,0,0,1-1.44-1.44V260.21a1.44,1.44,0,0,1,1.44-1.44h0a1.43,1.43,0,0,1,1.44,1.44v68.07A1.44,1.44,0,0,1,282.38,329.72Z" style="fill: rgb(255, 255, 255); transform-origin: 282.38px 294.245px;" id="elq4tm6uhkny" class="animable"></path><path d="M305.76,206.11h0a1.45,1.45,0,0,1-1.44-1.44V136.6a1.44,1.44,0,0,1,1.44-1.44h0a1.43,1.43,0,0,1,1.44,1.44v68.07A1.44,1.44,0,0,1,305.76,206.11Z" style="fill: rgb(255, 255, 255); transform-origin: 305.76px 170.635px;" id="el993xupqmzl" class="animable"></path><path d="M329.88,243.93h0a1.43,1.43,0,0,1-1.44-1.44V174.42a1.44,1.44,0,0,1,1.44-1.44h0a1.45,1.45,0,0,1,1.44,1.44v68.07A1.44,1.44,0,0,1,329.88,243.93Z" style="fill: rgb(255, 255, 255); transform-origin: 329.88px 208.455px;" id="el65nrklvyq9u" class="animable"></path><path d="M346.8,383.22h0a1.44,1.44,0,0,1-1.44-1.44V313.71a1.45,1.45,0,0,1,1.44-1.44h0a1.44,1.44,0,0,1,1.44,1.44v68.07A1.43,1.43,0,0,1,346.8,383.22Z" style="fill: rgb(255, 255, 255); transform-origin: 346.8px 347.745px;" id="eleze8nep0m5f" class="animable"></path><path d="M346.8,289.4h0a1.45,1.45,0,0,1-1.44-1.44v-8a1.45,1.45,0,0,1,1.44-1.44h0a1.44,1.44,0,0,1,1.44,1.44v8A1.44,1.44,0,0,1,346.8,289.4Z" style="fill: rgb(255, 255, 255); transform-origin: 346.8px 283.96px;" id="elzfkow129zsf" class="animable"></path><path d="M326.44,317.73h0a1.45,1.45,0,0,1-1.44-1.44v-8a1.45,1.45,0,0,1,1.44-1.44h0a1.44,1.44,0,0,1,1.44,1.44v8A1.44,1.44,0,0,1,326.44,317.73Z" style="fill: rgb(255, 255, 255); transform-origin: 326.44px 312.29px;" id="eletmt7ys3tvm" class="animable"></path><path d="M305.76,261.13h0a1.45,1.45,0,0,1-1.44-1.44v-8a1.45,1.45,0,0,1,1.44-1.44h0a1.44,1.44,0,0,1,1.44,1.44v8A1.44,1.44,0,0,1,305.76,261.13Z" style="fill: rgb(255, 255, 255); transform-origin: 305.76px 255.69px;" id="elxfencq01qn8" class="animable"></path><path d="M268.33,192.3h0a1.43,1.43,0,0,1-1.44-1.44v-8a1.43,1.43,0,0,1,1.44-1.44h0a1.43,1.43,0,0,1,1.44,1.44v8A1.43,1.43,0,0,1,268.33,192.3Z" style="fill: rgb(255, 255, 255); transform-origin: 268.33px 186.86px;" id="elvtnpis9ipao" class="animable"></path><path d="M305.76,295.43h0a1.44,1.44,0,0,1-1.44-1.44v-8a1.44,1.44,0,0,1,1.44-1.44h0A1.43,1.43,0,0,1,307.2,286v8A1.43,1.43,0,0,1,305.76,295.43Z" style="fill: rgb(255, 255, 255); transform-origin: 305.76px 289.99px;" id="elm0nx6b9kh5k" class="animable"></path><path d="M325,372.6h0a1.45,1.45,0,0,1-1.44-1.44v-8a1.45,1.45,0,0,1,1.44-1.44h0a1.44,1.44,0,0,1,1.44,1.44v8A1.44,1.44,0,0,1,325,372.6Z" style="fill: rgb(255, 255, 255); transform-origin: 325px 367.16px;" id="elww223687cuj" class="animable"></path><path d="M346.8,222.45h0a1.44,1.44,0,0,1-1.44-1.44V152.94a1.45,1.45,0,0,1,1.44-1.44h0a1.44,1.44,0,0,1,1.44,1.44V221A1.43,1.43,0,0,1,346.8,222.45Z" style="fill: rgb(255, 255, 255); transform-origin: 346.8px 186.975px;" id="elc8patbvuyhm" class="animable"></path><path d="M268.33,388.56h0a1.43,1.43,0,0,1-1.44-1.44V319.06a1.43,1.43,0,0,1,1.44-1.44h0a1.43,1.43,0,0,1,1.44,1.44v68.06A1.43,1.43,0,0,1,268.33,388.56Z" style="fill: rgb(255, 255, 255); transform-origin: 268.33px 353.09px;" id="elow1ulesagj" class="animable"></path><path d="M305.76,402.61h0a1.44,1.44,0,0,1-1.44-1.44V333.1a1.45,1.45,0,0,1,1.44-1.44h0a1.44,1.44,0,0,1,1.44,1.44v68.07A1.43,1.43,0,0,1,305.76,402.61Z" style="fill: rgb(255, 255, 255); transform-origin: 305.76px 367.135px;" id="elytihwqsqae" class="animable"></path></g></g><path d="M364.47,400.25H250.67A2.16,2.16,0,0,0,249,401l-3.21,3.63a2.17,2.17,0,0,0-.14,2.7H369.45a2.2,2.2,0,0,0-.14-2.7L366.09,401A2.15,2.15,0,0,0,364.47,400.25Z" style="fill: rgb(38, 50, 56); transform-origin: 307.546px 403.79px;" id="el6k6i44hz3t5" class="animable"></path><g id="el3f2cg3hou6q"><path d="M364.47,400.25H250.67A2.16,2.16,0,0,0,249,401l-3.21,3.63a2.17,2.17,0,0,0-.14,2.7H369.45a2.2,2.2,0,0,0-.14-2.7L366.09,401A2.15,2.15,0,0,0,364.47,400.25Z" style="fill: rgb(255, 255, 255); opacity: 0.4; transform-origin: 307.546px 403.79px;" class="animable"></path></g><polygon points="361.61 395.91 253.52 395.91 251.44 397.73 251.44 404.6 363.69 404.6 363.69 397.73 361.61 395.91" style="fill: rgb(38, 50, 56); transform-origin: 307.565px 400.255px;" id="el0gj6190u7eep" class="animable"></polygon><g id="elu2yyyzc6rw"><polygon points="361.61 395.91 253.52 395.91 251.44 397.73 251.44 404.6 363.69 404.6 363.69 397.73 361.61 395.91" style="fill: rgb(255, 255, 255); opacity: 0.1; transform-origin: 307.565px 400.255px;" class="animable"></polygon></g><polygon points="363.73 404.6 251.41 404.6 237.9 410.9 237.9 414.46 377.23 414.46 377.23 410.9 363.73 404.6" style="fill: rgb(38, 50, 56); transform-origin: 307.565px 409.53px;" id="el377550azlc4" class="animable"></polygon><g id="elq6em1aot47"><polygon points="363.73 404.6 251.41 404.6 237.9 410.9 377.23 410.9 363.73 404.6" style="fill: rgb(255, 255, 255); opacity: 0.2; transform-origin: 307.565px 407.75px;" class="animable"></polygon></g><g id="el9c15dgdrmno"><polygon points="361.61 395.91 253.52 395.91 251.44 397.73 363.69 397.73 361.61 395.91" style="fill: rgb(255, 255, 255); opacity: 0.2; transform-origin: 307.565px 396.82px;" class="animable"></polygon></g><path d="M307.57,407.32h0a1.69,1.69,0,0,1-1.69-1.68v-3.71a1.69,1.69,0,0,1,1.69-1.68h0a1.69,1.69,0,0,1,1.68,1.68v3.71A1.68,1.68,0,0,1,307.57,407.32Z" style="fill: rgb(38, 50, 56); transform-origin: 307.565px 403.785px;" id="elwyoat6oumyl" class="animable"></path><g id="el1tpve3owf3t"><path d="M307.57,407.32h0a1.69,1.69,0,0,1-1.69-1.68v-3.71a1.69,1.69,0,0,1,1.69-1.68h0a1.69,1.69,0,0,1,1.68,1.68v3.71A1.68,1.68,0,0,1,307.57,407.32Z" style="fill: rgb(255, 255, 255); opacity: 0.4; transform-origin: 307.565px 403.785px;" class="animable"></path></g></g><g id="freepik--NFT--inject-234" class="animable" style="transform-origin: 307.57px 235.155px;"><ellipse cx="311.55" cy="236.53" rx="45.32" ry="49.55" style="fill: rgb(64, 123, 255); transform-origin: 311.55px 236.53px;" id="el521h1r0vg7a" class="animable"></ellipse><g id="elckr0hnrva3"><g style="opacity: 0.2; transform-origin: 311.57px 236.53px;" class="animable"><path d="M356.86,236.1v.43c0,.24,0,.46,0,.7,0,.92,0,1.84-.1,2.75,0,.38,0,.76-.09,1.14q-.11,1.4-.3,2.76c0,.39-.1.76-.15,1.14-.15.92-.32,1.84-.52,2.75-.08.37-.16.75-.25,1.13-.22.94-.46,1.86-.72,2.77l-.36,1.13c-.29.93-.61,1.85-.95,2.75-.15.39-.3.76-.46,1.14-.38.94-.78,1.86-1.21,2.76-.18.39-.38.76-.57,1.14-.48.94-1,1.85-1.5,2.75-.23.38-.45.76-.69,1.13-.59.95-1.22,1.87-1.87,2.77-.27.38-.55.76-.85,1.13q-1.1,1.44-2.28,2.76c-.34.39-.7.76-1.05,1.14-.91,1-1.86,1.88-2.85,2.75-.43.39-.88.77-1.33,1.14a41.75,41.75,0,0,1-3.73,2.76c-.59.4-1.19.77-1.8,1.13a42.15,42.15,0,0,1-5.45,2.75c-1,.43-2,.8-3,1.14a41.81,41.81,0,0,1-26.41,0c-1-.34-2-.71-3-1.14-17-7.13-29.09-25.16-29.09-46.27s12-39,28.95-46.22c.79-.33,1.6-.65,2.42-.93a41.77,41.77,0,0,1,27.91,0c1,.34,1.94.72,2.89,1.13a45.32,45.32,0,0,1,5.26,2.75c.6.37,1.18.74,1.76,1.14a42.23,42.23,0,0,1,3.66,2.76c.44.37.87.75,1.3,1.14,1,.87,1.91,1.78,2.81,2.75q.52.55,1,1.14a35.16,35.16,0,0,1,2.25,2.76c.3.37.58.75.86,1.13.63.9,1.25,1.82,1.83,2.76.24.38.46.75.68,1.14.52.9,1,1.81,1.49,2.75.18.38.37.75.55,1.14q.63,1.35,1.2,2.76c.16.37.3.75.44,1.14.34.89.66,1.81.94,2.75.13.37.24.76.34,1.13.27.91.5,1.83.72,2.76.09.38.17.77.25,1.14.18.91.35,1.83.49,2.75.06.38.11.75.16,1.14.12.91.23,1.83.28,2.76a10.55,10.55,0,0,1,.08,1.14C356.83,234.24,356.85,235.16,356.86,236.1Z" style="fill: rgb(255, 255, 255); transform-origin: 311.57px 236.53px;" id="elz3bebtaicbq" class="animable"></path></g></g><g id="eln8uhnazn27"><g style="opacity: 0.1; transform-origin: 311.57px 236.53px;" class="animable"><path d="M356.86,236.1v.43c0,.24,0,.46,0,.7,0,.92,0,1.84-.1,2.75,0,.38,0,.76-.09,1.14q-.11,1.4-.3,2.76c0,.39-.1.76-.15,1.14-.15.92-.32,1.84-.52,2.75-.08.37-.16.75-.25,1.13-.22.94-.46,1.86-.72,2.77l-.36,1.13c-.29.93-.61,1.85-.95,2.75-.15.39-.3.76-.46,1.14-.38.94-.78,1.86-1.21,2.76-.18.39-.38.76-.57,1.14-.48.94-1,1.85-1.5,2.75-.23.38-.45.76-.69,1.13-.59.95-1.22,1.87-1.87,2.77-.27.38-.55.76-.85,1.13q-1.1,1.44-2.28,2.76c-.34.39-.7.76-1.05,1.14-.91,1-1.86,1.88-2.85,2.75-.43.39-.88.77-1.33,1.14a41.75,41.75,0,0,1-3.73,2.76c-.59.4-1.19.77-1.8,1.13a42.15,42.15,0,0,1-5.45,2.75c-1,.43-2,.8-3,1.14a41.81,41.81,0,0,1-26.41,0c-1-.34-2-.71-3-1.14-17-7.13-29.09-25.16-29.09-46.27s12-39,28.95-46.22c.79-.33,1.6-.65,2.42-.93a41.77,41.77,0,0,1,27.91,0c1,.34,1.94.72,2.89,1.13a45.32,45.32,0,0,1,5.26,2.75c.6.37,1.18.74,1.76,1.14a42.23,42.23,0,0,1,3.66,2.76c.44.37.87.75,1.3,1.14,1,.87,1.91,1.78,2.81,2.75q.52.55,1,1.14a35.16,35.16,0,0,1,2.25,2.76c.3.37.58.75.86,1.13.63.9,1.25,1.82,1.83,2.76.24.38.46.75.68,1.14.52.9,1,1.81,1.49,2.75.18.38.37.75.55,1.14q.63,1.35,1.2,2.76c.16.37.3.75.44,1.14.34.89.66,1.81.94,2.75.13.37.24.76.34,1.13.27.91.5,1.83.72,2.76.09.38.17.77.25,1.14.18.91.35,1.83.49,2.75.06.38.11.75.16,1.14.12.91.23,1.83.28,2.76a10.55,10.55,0,0,1,.08,1.14C356.83,234.24,356.85,235.16,356.86,236.1Z" id="elvhm5517gt1c" class="animable" style="transform-origin: 311.57px 236.53px;"></path></g></g><g id="ele64oamdk1hu"><g style="opacity: 0.2; transform-origin: 326.015px 236.66px;" class="animable"><path d="M327.77,282.8c-1,.43-2,.8-3,1.14H295.17V282.8Z" id="el77rglxl4iek" class="animable" style="transform-origin: 311.47px 283.37px;"></path><path d="M335,278.92c-.59.4-1.19.77-1.8,1.13H295.17v-1.13Z" id="elxd2ekusnc3s" class="animable" style="transform-origin: 315.085px 279.485px;"></path><path d="M340.08,275c-.43.39-.88.77-1.33,1.14H295.17V275Z" id="elgnhw16t7zfn" class="animable" style="transform-origin: 317.625px 275.57px;"></path><path d="M344,271.13c-.34.39-.7.76-1.05,1.14H295.17v-1.14Z" id="el1f1vqkhkfv8" class="animable" style="transform-origin: 319.585px 271.7px;"></path><path d="M347.11,267.24c-.27.38-.55.76-.85,1.13H295.17v-1.13Z" id="el9avfxxq81np" class="animable" style="transform-origin: 321.14px 267.805px;"></path><path d="M349.67,263.34c-.23.38-.45.76-.69,1.13H295.17v-1.13Z" id="elye92qhetsv" class="animable" style="transform-origin: 322.42px 263.905px;"></path><path d="M351.74,259.45c-.18.39-.38.76-.57,1.14h-56v-1.14Z" id="el9337ia3ldro" class="animable" style="transform-origin: 323.455px 260.02px;"></path><path d="M353.41,255.55c-.15.39-.3.76-.46,1.14H295.17v-1.14Z" id="eleht5wqtjug" class="animable" style="transform-origin: 324.29px 256.12px;"></path><path d="M354.72,251.67l-.36,1.13H295.17v-1.13Z" id="elcfq3co9rri" class="animable" style="transform-origin: 324.945px 252.235px;"></path><path d="M355.69,247.77c-.08.37-.16.75-.25,1.13H295.17v-1.13Z" id="elpuk9xqz7fuh" class="animable" style="transform-origin: 325.43px 248.335px;"></path><path d="M356.36,243.88c0,.39-.1.76-.15,1.14h-61v-1.14Z" id="elv5j80mbxm2h" class="animable" style="transform-origin: 325.785px 244.45px;"></path><path d="M356.75,240c0,.38,0,.76-.09,1.14H295.17V240Z" id="eloc8qs94cyfa" class="animable" style="transform-origin: 325.96px 240.57px;"></path><path d="M356.86,236.1v.43c0,.24,0,.46,0,.7H295.17V236.1Z" id="elp9qcxmb3nmq" class="animable" style="transform-origin: 326.015px 236.665px;"></path><path d="M356.76,233.34H295.17V232.2h61.51A10.55,10.55,0,0,1,356.76,233.34Z" id="el9k1lkluijco" class="animable" style="transform-origin: 325.965px 232.77px;"></path><path d="M356.4,229.44H295.17V228.3h61.07C356.3,228.68,356.35,229.05,356.4,229.44Z" id="eltov7tk5mii8" class="animable" style="transform-origin: 325.785px 228.87px;"></path><path d="M355.75,225.55H295.17v-1.14H355.5C355.59,224.79,355.67,225.18,355.75,225.55Z" id="el1jqq02d6x8rj" class="animable" style="transform-origin: 325.46px 224.98px;"></path><path d="M354.78,221.65H295.17v-1.13h59.27C354.57,220.89,354.68,221.28,354.78,221.65Z" id="el6m9b9gcczd" class="animable" style="transform-origin: 324.975px 221.085px;"></path><path d="M353.5,217.77H295.17v-1.14h57.89C353.22,217,353.36,217.38,353.5,217.77Z" id="elgeywp7g2dpl" class="animable" style="transform-origin: 324.335px 217.2px;"></path><path d="M351.86,213.87H295.17v-1.14h56.14C351.49,213.11,351.68,213.48,351.86,213.87Z" id="elezp94vjht9n" class="animable" style="transform-origin: 323.515px 213.3px;"></path><path d="M349.82,210H295.17v-1.14h54C349.38,209.22,349.6,209.59,349.82,210Z" id="elumzo11rsak" class="animable" style="transform-origin: 322.495px 209.43px;"></path><path d="M347.31,206.08H295.17V205h51.28C346.75,205.32,347,205.7,347.31,206.08Z" id="el84mvntu8r58" class="animable" style="transform-origin: 321.24px 205.54px;"></path><path d="M344.2,202.19h-49v-1.14h48Q343.7,201.6,344.2,202.19Z" id="elzy2m7gum3cf" class="animable" style="transform-origin: 319.7px 201.62px;"></path><path d="M340.37,198.3h-45.2v-1.14h43.9C339.51,197.53,339.94,197.91,340.37,198.3Z" id="el2dh13tkjb0w" class="animable" style="transform-origin: 317.77px 197.73px;"></path><path d="M335.41,194.4H295.17v-1.14h38.48C334.25,193.63,334.83,194,335.41,194.4Z" id="elhjocus3j2q7" class="animable" style="transform-origin: 315.29px 193.83px;"></path><path d="M328.39,190.51H295.17v-1.13H325.5C326.48,189.72,327.44,190.1,328.39,190.51Z" id="elhtb91etpz9w" class="animable" style="transform-origin: 311.78px 189.945px;"></path></g></g><ellipse cx="303.59" cy="236.53" rx="45.32" ry="49.55" style="fill: rgb(64, 123, 255); transform-origin: 303.59px 236.53px;" id="elk1r8blb1to" class="animable"></ellipse><g id="elr57ugrjbzaf"><g style="opacity: 0.3; transform-origin: 303.59px 236.53px;" class="animable"><ellipse cx="303.59" cy="236.53" rx="45.32" ry="49.55" style="fill: rgb(255, 255, 255); transform-origin: 303.59px 236.53px;" id="elzfy4897fzvm" class="animable"></ellipse></g></g><ellipse cx="303.59" cy="236.53" rx="40.39" ry="44.16" style="fill: rgb(64, 123, 255); transform-origin: 303.59px 236.53px;" id="elzlqs40lm1j" class="animable"></ellipse><g id="el82gf7myy2s8"><g style="opacity: 0.2; transform-origin: 283.68px 236.52px;" class="animable"><path d="M304.16,280.68h-.57c-22.31,0-40.39-19.77-40.39-44.16s18.08-44.16,40.39-44.16h.57c-22.05.33-39.83,20-39.83,44.15S282.11,280.35,304.16,280.68Z" id="elttkvp0ycf8" class="animable" style="transform-origin: 283.68px 236.52px;"></path></g></g><g id="el7nuw00zappk"><g style="opacity: 0.2; transform-origin: 304.73px 234.67px;" class="animable"><path d="M294.43,223.34V246H290.5l-10.31-13.73V246h-4.73V223.34h4l10.29,13.73V223.34Z" id="elphe41nvjoz9" class="animable" style="transform-origin: 284.945px 234.67px;"></path><path d="M304.12,227.54v6h9.57v4.2h-9.57V246h-4.79V223.34H315v4.2Z" id="el3yn7fk612sw" class="animable" style="transform-origin: 307.165px 234.67px;"></path><path d="M322.64,227.61H316v-4.27h18v4.27h-6.62V246h-4.79Z" id="elfuffs5mxw3" class="animable" style="transform-origin: 325px 234.67px;"></path></g></g><path d="M293.3,223.34V246h-3.93l-10.32-13.73V246h-4.73V223.34h4l10.29,13.73V223.34Z" style="fill: rgb(64, 123, 255); transform-origin: 283.81px 234.67px;" id="eljkxmlptfkn" class="animable"></path><path d="M303,227.54v6h9.58v4.2H303V246H298.2V223.34h15.63v4.2Z" style="fill: rgb(64, 123, 255); transform-origin: 306.015px 234.67px;" id="eljy9k79gkedl" class="animable"></path><path d="M321.5,227.61h-6.61v-4.27h18v4.27h-6.62V246H321.5Z" style="fill: rgb(64, 123, 255); transform-origin: 323.89px 234.67px;" id="el2pm6wln1uvt" class="animable"></path><g id="el3in581pvv3d"><g style="opacity: 0.3; transform-origin: 303.605px 234.67px;" class="animable"><path d="M293.3,223.34V246h-3.93l-10.32-13.73V246h-4.73V223.34h4l10.29,13.73V223.34Z" style="fill: rgb(255, 255, 255); transform-origin: 283.81px 234.67px;" id="elyh1f28fub" class="animable"></path><path d="M303,227.54v6h9.58v4.2H303V246H298.2V223.34h15.63v4.2Z" style="fill: rgb(255, 255, 255); transform-origin: 306.015px 234.67px;" id="elqt7rcial7e" class="animable"></path><path d="M321.5,227.61h-6.61v-4.27h18v4.27h-6.62V246H321.5Z" style="fill: rgb(255, 255, 255); transform-origin: 323.89px 234.67px;" id="elbwvwxu9giy" class="animable"></path></g></g><g id="el6d30ewc336g"><path d="M308.45,187.26l-41.09,79a52.32,52.32,0,0,1-9.09-29.77c0-27.37,20.29-49.55,45.32-49.55A41.18,41.18,0,0,1,308.45,187.26Z" style="fill: rgb(255, 255, 255); opacity: 0.1; transform-origin: 283.36px 226.6px;" class="animable"></path></g><g id="elwyhafdqayf9"><path d="M320.68,190.63l-44.42,85.42a45.33,45.33,0,0,1-6.6-6.68l42.39-81.53A42.23,42.23,0,0,1,320.68,190.63Z" style="fill: rgb(255, 255, 255); opacity: 0.1; transform-origin: 295.17px 231.945px;" class="animable"></path></g><g id="elvf3ikrd7d1m"><path d="M328.67,195.26,284,281.21c-.77-.41-1.53-.83-2.26-1.28l44.79-86.15C327.25,194.24,328,194.74,328.67,195.26Z" style="fill: rgb(255, 255, 255); opacity: 0.1; transform-origin: 305.205px 237.495px;" class="animable"></path></g><polygon points="282.12 191.59 280.45 185.39 278.78 191.59 272.58 193.26 278.78 194.93 280.45 201.14 282.12 194.93 288.33 193.26 282.12 191.59" style="fill: rgb(255, 255, 255); transform-origin: 280.455px 193.265px;" id="eljxemeaod82d" class="animable"></polygon><polygon points="337.76 256.62 336.41 251.61 335.06 256.62 330.05 257.97 335.06 259.32 336.41 264.33 337.76 259.32 342.77 257.97 337.76 256.62" style="fill: rgb(255, 255, 255); transform-origin: 336.41px 257.97px;" id="elwzh3pk6s45b" class="animable"></polygon><polygon points="295.36 184.23 294.6 187.08 291.75 187.84 294.6 188.61 295.36 191.46 296.13 188.61 298.98 187.84 296.13 187.08 295.36 184.23" style="fill: rgb(255, 255, 255); transform-origin: 295.365px 187.845px;" id="elmrevijftp8" class="animable"></polygon><polygon points="291.94 209.12 291.17 211.97 288.33 212.73 291.17 213.5 291.94 216.34 292.71 213.5 295.55 212.73 292.71 211.97 291.94 209.12" style="fill: rgb(255, 255, 255); transform-origin: 291.94px 212.73px;" id="el5d7ehzilx1r" class="animable"></polygon><polygon points="330.05 275.31 329.28 278.15 326.44 278.92 329.28 279.68 330.05 282.53 330.81 279.68 333.66 278.92 330.81 278.15 330.05 275.31" style="fill: rgb(255, 255, 255); transform-origin: 330.05px 278.92px;" id="elob6hb4nrn6r" class="animable"></polygon></g><g id="freepik--speech-bubble--inject-234" class="animable" style="transform-origin: 127.755px 142.17px;"><path d="M141.73,114.73h-28a9.63,9.63,0,0,0-9.63,9.63v27.23a9.63,9.63,0,0,0,9.63,9.63h19.15l6.51,8.39,0-8.39h2.39a9.64,9.64,0,0,0,9.63-9.63V124.36A9.63,9.63,0,0,0,141.73,114.73Z" style="fill: rgb(64, 123, 255); transform-origin: 127.755px 142.17px;" id="elo2uh5skolu8" class="animable"></path><path d="M127.72,122.65l-15.62,6.29s.22,20.18,15.62,24.73c15.4-4.55,15.62-24.73,15.62-24.73Z" style="fill: rgb(255, 255, 255); transform-origin: 127.72px 138.16px;" id="elu9iinnt4nil" class="animable"></path><path d="M127.72,124.84l-13.42,5.4s.18,17.34,13.42,21.25c13.23-3.91,13.42-21.25,13.42-21.25Z" style="fill: rgb(64, 123, 255); transform-origin: 127.72px 138.165px;" id="elrbivle1sxpf" class="animable"></path><g id="elcbwpixqbjra"><path d="M127.72,124.84l-13.42,5.4s.18,17.34,13.42,21.25c13.23-3.91,13.42-21.25,13.42-21.25Z" style="fill: rgb(255, 255, 255); opacity: 0.6; transform-origin: 127.72px 138.165px;" class="animable"></path></g><path d="M126.49,143.87a1.5,1.5,0,0,1-1.06-.44L120,138a1.5,1.5,0,0,1,2.13-2.12l4.34,4.34,6.83-7.29a1.5,1.5,0,1,1,2.19,2l-7.89,8.42a1.51,1.51,0,0,1-1.07.47Z" style="fill: rgb(255, 255, 255); transform-origin: 127.805px 138.067px;" id="el78853yomwvw" class="animable"></path></g><g id="freepik--Character--inject-234" class="animable" style="transform-origin: 175.39px 293.692px;"><path d="M142.22,283.38s19.77-8.87,46.12-4.92c0,0-4.55-53.12-6.21-60.25s-39.49,1.23-39.49,1.23,2.45,21.16,2.06,34.23S140.56,281.15,142.22,283.38Z" style="fill: rgb(38, 50, 56); transform-origin: 165.069px 249.356px;" id="el8n22ya05vd" class="animable"></path><g id="el7g0beh3oowo"><path d="M142.22,283.38s19.77-8.87,46.12-4.92c0,0-4.55-53.12-6.21-60.25s-39.49,1.23-39.49,1.23,2.45,21.16,2.06,34.23S140.56,281.15,142.22,283.38Z" style="opacity: 0.2; transform-origin: 165.069px 249.356px;" class="animable"></path></g><polygon points="198.94 409.93 192.11 411.86 190.48 401.23 189.61 395.55 196.44 393.62 197.6 401.23 198.94 409.93" style="fill: rgb(181, 91, 82); transform-origin: 194.275px 402.74px;" id="elwlb1ubkpoqs" class="animable"></polygon><polygon points="159.67 410.49 152.63 411.42 152.56 401.23 152.51 394.9 159.57 393.98 159.61 401.23 159.67 410.49" style="fill: rgb(181, 91, 82); transform-origin: 156.09px 402.7px;" id="elwin4lo5dl1" class="animable"></polygon><g id="ellrctkohn4ob"><polygon points="159.57 393.98 159.61 401.23 152.56 401.23 152.51 394.9 159.57 393.98" style="opacity: 0.2; transform-origin: 156.06px 397.605px;" class="animable"></polygon></g><g id="eldotczgms1y"><polygon points="197.6 401.23 190.48 401.23 189.61 395.55 196.44 393.62 197.6 401.23" style="opacity: 0.2; transform-origin: 193.605px 397.425px;" class="animable"></polygon></g><path d="M198.85,408.86l-7.75-.21a.63.63,0,0,0-.62.47l-1.63,6.25a1,1,0,0,0,1,1.28c2.8,0,6.85,0,10.37.07,4.11.11,6.72-.09,11.55,0,2.91.08,3.83-2.83,2.62-3.13-5.52-1.36-9.12-1.09-13.81-4.17A3.39,3.39,0,0,0,198.85,408.86Z" style="fill: rgb(38, 50, 56); transform-origin: 201.859px 412.702px;" id="elmtqa0kujj2" class="animable"></path><path d="M199.41,409.72a.16.16,0,0,1,.1-.17c.33-.16,3.23-1.53,4.08-1a.55.55,0,0,1,.26.46.93.93,0,0,1-.35.8c-.8.67-2.82.33-4,.08h0A.18.18,0,0,1,199.41,409.72Zm.7-.08c1.56.3,2.73.27,3.18-.11a.6.6,0,0,0,.22-.53.18.18,0,0,0-.1-.18l-.06,0C202.82,408.59,201.26,409.14,200.11,409.64Z" style="fill: rgb(64, 123, 255); transform-origin: 201.631px 409.315px;" id="elwl6uppsibqt" class="animable"></path><path d="M199.48,409.84a.17.17,0,0,1-.07-.16,4.79,4.79,0,0,1,1.2-2.69,1.22,1.22,0,0,1,.95-.26c.46.06.58.29.61.48.1.8-1.66,2.29-2.53,2.65h-.12Zm2-2.78a.92.92,0,0,0-.69.19,4,4,0,0,0-1,2.16c.89-.5,2.09-1.67,2-2.15,0,0,0-.11-.15-.16A.61.61,0,0,0,201.51,407.06Z" style="fill: rgb(64, 123, 255); transform-origin: 200.791px 408.288px;" id="el39ozwgvf1oz" class="animable"></path><path d="M159.39,408.86l-7.76-.21a.64.64,0,0,0-.62.47l-1.63,6.25a1,1,0,0,0,1,1.28c2.8,0,6.85,0,10.36.07,4.12.11,6.73-.09,11.55,0,2.92.08,3.83-2.83,2.62-3.13-5.51-1.36-9.11-1.09-13.81-4.17A3.35,3.35,0,0,0,159.39,408.86Z" style="fill: rgb(38, 50, 56); transform-origin: 162.385px 412.702px;" id="elp18rtpsrbm" class="animable"></path><path d="M160,409.72a.17.17,0,0,1,.09-.17c.33-.16,3.24-1.53,4.08-1a.54.54,0,0,1,.27.46,1,1,0,0,1-.35.8c-.8.67-2.83.33-4,.08h0A.17.17,0,0,1,160,409.72Zm.7-.08c1.55.3,2.73.27,3.18-.11a.6.6,0,0,0,.22-.53.18.18,0,0,0-.1-.18l-.06,0C163.36,408.59,161.79,409.14,160.65,409.64Z" style="fill: rgb(64, 123, 255); transform-origin: 162.22px 409.315px;" id="eln0pocwzl6p" class="animable"></path><path d="M160,409.84a.17.17,0,0,1-.06-.16,4.79,4.79,0,0,1,1.2-2.69,1.2,1.2,0,0,1,.94-.26c.46.06.59.29.61.48.1.8-1.65,2.29-2.52,2.65h-.13Zm2-2.78a.94.94,0,0,0-.7.19,4,4,0,0,0-1,2.16c.89-.5,2.09-1.67,2-2.15a.21.21,0,0,0-.15-.16Z" style="fill: rgb(64, 123, 255); transform-origin: 161.316px 408.288px;" id="eljzwb0oqr6fo" class="animable"></path><path d="M145.15,255.67c-3.73,16.18,2.67,143.39,2.67,143.39h12.37l5.29-106,19.48,106,13.22-1C189.54,316,181.9,266.94,181.9,266.94l0-6.2Z" style="fill: rgb(64, 123, 255); transform-origin: 171.081px 327.365px;" id="el7p3d98trkst" class="animable"></path><g id="eljzt87myhwlc"><path d="M145.15,255.67c-3.73,16.18,2.67,143.39,2.67,143.39h12.37l5.29-106,19.48,106,13.22-1C189.54,316,181.9,266.94,181.9,266.94l0-6.2Z" style="fill: rgb(255, 255, 255); opacity: 0.6; transform-origin: 171.081px 327.365px;" class="animable"></path></g><g id="elwi9zavq0cq"><path d="M169.63,315.6l-4.15-22.55.8-11.94S172,301.81,169.63,315.6Z" style="opacity: 0.2; transform-origin: 167.843px 298.355px;" class="animable"></path></g><polygon points="144.38 261.34 155.4 261.34 155.4 264.04 143.98 264.01 144.38 261.34" style="fill: rgb(38, 50, 56); transform-origin: 149.69px 262.69px;" id="elslh553ami2d" class="animable"></polygon><polygon points="156.41 261.34 175.77 261.34 175.77 264.09 156.41 264.04 156.41 261.34" style="fill: rgb(38, 50, 56); transform-origin: 166.09px 262.715px;" id="el2orvwogm92d" class="animable"></polygon><polygon points="182.36 261.34 182.36 264.11 176.77 264.1 176.77 261.34 182.36 261.34" style="fill: rgb(38, 50, 56); transform-origin: 179.565px 262.725px;" id="eloknlmadbvsf" class="animable"></polygon><path d="M168.1,264.33h-2.87a.92.92,0,0,1-.92-.92V262a.92.92,0,0,1,.92-.92h2.87a.92.92,0,0,1,.91.92v1.4A.92.92,0,0,1,168.1,264.33Zm-2.87-2.74a.42.42,0,0,0-.42.42v1.4a.42.42,0,0,0,.42.42h2.87a.41.41,0,0,0,.41-.42V262a.41.41,0,0,0-.41-.42Z" style="fill: rgb(255, 255, 255); transform-origin: 166.66px 262.705px;" id="el9o0iwb1qz89" class="animable"></path><path d="M168.12,263H167a.25.25,0,1,1,0-.5h1.14a.25.25,0,0,1,0,.5Z" style="fill: rgb(255, 255, 255); transform-origin: 167.57px 262.75px;" id="elsjvk3oip2z" class="animable"></path><path d="M181.08,206.1c7,.31,18.58,26.21,18.58,26.21l-5,7.48-14-18Z" style="fill: rgb(38, 50, 56); transform-origin: 190.16px 222.945px;" id="elesso6m6y02m" class="animable"></path><g id="eliwfo8n6z7i"><path d="M180.71,221.8l.29.38,11.7,15,2,2.58,5-7.49s-11.6-25.89-18.58-26.21Z" style="fill: rgb(255, 255, 255); opacity: 0.2; transform-origin: 190.205px 222.91px;" class="animable"></path></g><g id="elmquu7h4esd"><path d="M181,222.18l11.7,15c0-.27-.1-.57-.17-.89-2.86-12.42-10.95-17.9-10.95-17.9A12.56,12.56,0,0,0,181,222.18Z" style="opacity: 0.1; transform-origin: 186.85px 227.785px;" class="animable"></path></g><path d="M141.29,206a126.45,126.45,0,0,1,3.43,20.55c.42,4.82.6,9.41.64,13.56.11,9.74-.15,20.77-.15,20.77s25.55,0,36.71-.11c6.71-34.88-1.48-53.18-1.48-53.18l-9.12-3.12s-1.27-.13-1.91-.17a149.45,149.45,0,0,0-15.76.17c-1,.05-2,.13-3,.22C145.7,205.12,141.29,206,141.29,206Z" style="fill: rgb(64, 123, 255); transform-origin: 162.926px 232.524px;" id="elkbrfkwfdph" class="animable"></path><path d="M154.88,205.29a16.65,16.65,0,0,0,11.9,4.77,3.6,3.6,0,0,0,3.83-3.6,7.5,7.5,0,0,1-3.1-1.75c-2.13-2.1-1.6-5.15-.62-8l-9-9a50.15,50.15,0,0,1,.27,7.51h0C158,199.33,157.17,203.42,154.88,205.29Z" style="fill: rgb(181, 91, 82); transform-origin: 162.745px 198.889px;" id="elzfo2n0xr4z" class="animable"></path><g id="el02c0w8c6qakh"><path d="M158.2,195.23h0c1.48,4.31,4.26,9.11,9.31,9.47-2.13-2.1-1.6-5.15-.62-8l-9-9A50.15,50.15,0,0,1,158.2,195.23Z" style="opacity: 0.2; transform-origin: 162.7px 196.2px;" class="animable"></path></g><path d="M178.09,180.28c.75,2.69.1,8.16-3.57,6.25S176.81,175.64,178.09,180.28Z" style="fill: rgb(38, 50, 56); transform-origin: 175.854px 182.946px;" id="elrs3hpvchfyg" class="animable"></path><path d="M158.74,183.2c-.65,6.84-1.38,10.82,1.51,14.81,4.34,6,13.22,4.13,15.91-2.4,2.43-5.88,3.09-16.08-3.15-19.76A9.48,9.48,0,0,0,158.74,183.2Z" style="fill: rgb(181, 91, 82); transform-origin: 168.028px 188.087px;" id="elhxb77r16vxs" class="animable"></path><path d="M163.68,179.64,164,172s-8.13-.89-7.91,3.29c-4.6,2.08-3.22,12.16,2.73,15.82,3.41-2.54,3.77-11.94,3.77-11.94C162.89,179.32,163.28,179.49,163.68,179.64Z" style="fill: rgb(38, 50, 56); transform-origin: 158.675px 181.515px;" id="elm15f00oua6" class="animable"></path><path d="M155.24,188.44a6.42,6.42,0,0,0,2.59,4.24c1.87,1.32,3.59-.16,3.74-2.33.13-1.95-.69-5-2.88-5.45A3,3,0,0,0,155.24,188.44Z" style="fill: rgb(181, 91, 82); transform-origin: 158.383px 189.018px;" id="elon4bl6wap6k" class="animable"></path><path d="M168.76,186.62c-.09.55.14,1,.5,1.1s.72-.35.81-.91-.13-1-.5-1.09S168.85,186.07,168.76,186.62Z" style="fill: rgb(38, 50, 56); transform-origin: 169.415px 186.721px;" id="elk93whi6ii7f" class="animable"></path><path d="M175,187.55c-.09.55.14,1,.5,1.09s.72-.35.81-.9-.13-1-.5-1.1S175.11,187,175,187.55Z" style="fill: rgb(38, 50, 56); transform-origin: 175.655px 187.639px;" id="el0k7lsgx3y6x6" class="animable"></path><path d="M173,187.53a19.08,19.08,0,0,0,2,4.95,3.3,3.3,0,0,1-2.7.05Z" style="fill: rgb(160, 39, 36); transform-origin: 173.65px 190.162px;" id="el3pi9nqa3cm7" class="animable"></path><path d="M169,194.21a7,7,0,0,0,.72.15.18.18,0,0,0,.19-.14.16.16,0,0,0-.14-.18,4.39,4.39,0,0,1-3.31-2.24.16.16,0,0,0-.22-.08.16.16,0,0,0-.08.22A4.61,4.61,0,0,0,169,194.21Z" style="fill: rgb(38, 50, 56); transform-origin: 168.027px 193.032px;" id="elnmo3zj1lqeh" class="animable"></path><path d="M167.15,184.32a.32.32,0,0,0,.32-.08,2.69,2.69,0,0,1,2.26-.78.33.33,0,0,0,.14-.64,3.32,3.32,0,0,0-2.86,1,.32.32,0,0,0,0,.46A.24.24,0,0,0,167.15,184.32Z" style="fill: rgb(38, 50, 56); transform-origin: 168.502px 183.561px;" id="elwlxlmzqnaj" class="animable"></path><path d="M178.06,185.8a.41.41,0,0,0,.19,0,.32.32,0,0,0,.21-.41,3.25,3.25,0,0,0-2-2.17.34.34,0,0,0-.41.23.32.32,0,0,0,.22.4,2.54,2.54,0,0,1,1.6,1.74A.34.34,0,0,0,178.06,185.8Z" style="fill: rgb(38, 50, 56); transform-origin: 177.257px 184.51px;" id="elrg60cauhbr" class="animable"></path><path d="M162.54,179.15s13.32,4.81,18.15.74-1-5.92-1-5.92,2,1.6.56,2.8c0,0-1.21-5.2-6.06-6.14a3.86,3.86,0,0,1,1.25,3.07,23.38,23.38,0,0,0-9-2.71C160.92,170.4,147,173.7,162.54,179.15Z" style="fill: rgb(38, 50, 56); transform-origin: 169.011px 176.078px;" id="eloeqtzsm211d" class="animable"></path><path d="M152.87,204.42a157.2,157.2,0,0,1,.84,27.39v0c-.72,12.4-9.82,53.76-9.82,53.76s-2.66-.62-3.4-1.95,3.68-19.92,3.28-33.41-4.31-43.64-4.31-43.64a44.42,44.42,0,0,1,9-1.83C149.79,204.63,151.26,204.49,152.87,204.42Z" style="fill: rgb(38, 50, 56); transform-origin: 146.711px 244.995px;" id="eli2tgpet6vas" class="animable"></path><g id="el3fdxlljh5nu"><path d="M140.48,283.65c.74,1.34,3.4,2,3.4,2s7-32.91,8.35-40.6a118.14,118.14,0,0,0,1.48-13.15s0,0,0,0c0-.48,0-.95.08-1.43a158.48,158.48,0,0,0-.88-25.65c0-.21,0-.32,0-.32-1.6.08-3.08.21-4.42.36a43.9,43.9,0,0,0-9,1.84s.9,7,1.9,15.76c0,.13,0,.26,0,.39.28,2.52.56,5.16.84,7.83h0c.52,5,1,10,1.26,14.29.13,2,.23,3.77.28,5.35C144.16,263.73,139.75,282.33,140.48,283.65Z" style="fill: rgb(255, 255, 255); opacity: 0.2; transform-origin: 146.727px 245.075px;" class="animable"></path></g><path d="M152.87,204.42a157.2,157.2,0,0,1,.84,27.39v0l-7.92-18.35,5-1.31L145.21,210l3.24-5.25C149.79,204.63,151.26,204.49,152.87,204.42Z" style="fill: rgb(38, 50, 56); transform-origin: 149.586px 218.115px;" id="elvv2weytor8" class="animable"></path><path d="M188.89,280.27l-1.15,1.16a434.23,434.23,0,0,0-6.55-47.05c-.24-1.28-.5-2.52-.74-3.7-4.67-22.49-8.86-26-9.13-26.24l3.47.58,6.29,1.08C186,225.14,188.89,280.27,188.89,280.27Z" style="fill: rgb(38, 50, 56); transform-origin: 180.105px 242.935px;" id="elpbwx8dzwb4m" class="animable"></path><g id="elk6pv18us83e"><path d="M188.89,280.27l-1.15,1.16a434.23,434.23,0,0,0-6.55-47.05c-.24-1.28-.5-2.52-.74-3.7-4.67-22.49-8.86-26-9.13-26.24l3.47.58,6.29,1.08C186,225.14,188.89,280.27,188.89,280.27Z" style="fill: rgb(255, 255, 255); opacity: 0.2; transform-origin: 180.105px 242.935px;" class="animable"></path></g><path d="M176.15,211.8l4.15,1.74s.83,11.23.15,17.14c-4.67-22.49-8.86-26-9.13-26.24l3.47.58a22.12,22.12,0,0,1,5.42,5.08Z" style="fill: rgb(38, 50, 56); transform-origin: 176.019px 217.56px;" id="el1yi7wihbvcx" class="animable"></path><g id="elu3k4c1ufalr"><path d="M143.19,222.8a19.85,19.85,0,0,1-1,7.79c-.28-2.66-.57-5.31-.84-7.82A4.23,4.23,0,0,1,143.19,222.8Z" style="opacity: 0.2; transform-origin: 142.295px 226.637px;" class="animable"></path></g><g id="elkw2p6w2rfga"><path d="M143.48,244.89c.45.1.91.17,1.37.23a27.87,27.87,0,0,0,7.38-.12,31.86,31.86,0,0,0,4.94-1.09c17.25-5.6,17.19-9.31,17.19-9.31s-11.21,1.07-17-1.24a9.63,9.63,0,0,1-3.58-3c-4.27-5.19-7.66-14.74-7.66-14.74s-1.17,1.43-2.72,3.65c-.65.91-1.35,2-2.06,3.08,0,.13,0,.26,0,.39.28,2.52.56,5.16.84,7.83h0C142.74,235.57,143.2,240.6,143.48,244.89Z" style="opacity: 0.1; transform-origin: 157.85px 230.465px;" class="animable"></path></g><path d="M174.47,228.62l.54,4.52c2.21,4.25,7.17.46,7.17.46l3.12-.86a2.41,2.41,0,0,0,1.59-2.69l-.35-3.16A2.52,2.52,0,0,0,184,224.5l-2.81.29a5,5,0,0,0-2.28.84Z" style="fill: rgb(181, 91, 82); transform-origin: 180.698px 229.828px;" id="elovd0yqvv9x" class="animable"></path><path d="M139.45,206.61c-10.11,4.7,4,35.81,8,36.26,7.68.85,29-6.77,29-6.77l-1.35-8.59s-20.83,5.54-22.75,5c-2.47-.66-5.6-12.76-7.05-18.48A10.86,10.86,0,0,0,139.45,206.61Z" style="fill: rgb(38, 50, 56); transform-origin: 156.161px 224.773px;" id="elzq6em2zjbu" class="animable"></path><g id="el5gv78w6at2"><path d="M139.45,206.61c-10.11,4.7,4,35.81,8,36.26,7.68.85,29-6.77,29-6.77l-1.35-8.59s-20.83,5.54-22.75,5c-2.47-.66-5.6-12.76-7.05-18.48A10.86,10.86,0,0,0,139.45,206.61Z" style="fill: rgb(255, 255, 255); opacity: 0.2; transform-origin: 156.161px 224.773px;" class="animable"></path></g><path d="M187.9,245h0l17.48-1.23a1.67,1.67,0,0,0,1.43-1.3L212,216a1,1,0,0,0-.25-.9.87.87,0,0,0-.71-.24l-17.51,1.24a1.68,1.68,0,0,0-1.43,1.31L187,243.83A.88.88,0,0,0,187.9,245Z" style="fill: rgb(38, 50, 56); transform-origin: 199.486px 229.928px;" id="ellthd0j0jln" class="animable"></path><g id="elafvwfqk2zw"><path d="M187.9,245h0l17.48-1.23a1.67,1.67,0,0,0,1.43-1.3L212,216a1,1,0,0,0-.25-.9.87.87,0,0,0-.71-.24l-17.51,1.24a1.68,1.68,0,0,0-1.43,1.31L187,243.83A.88.88,0,0,0,187.9,245Z" style="fill: rgb(255, 255, 255); opacity: 0.6; transform-origin: 199.486px 229.928px;" class="animable"></path></g><g id="el4lle1j1oise"><path d="M187.94,245l17.48-1.23a1.67,1.67,0,0,0,1.43-1.3L212,216a1,1,0,0,0-.25-.9l-17.47,1.24a1.67,1.67,0,0,0-1.43,1.3l-5.15,26.41A.91.91,0,0,0,187.94,245Z" style="fill: rgb(255, 255, 255); opacity: 0.2; transform-origin: 199.838px 230.05px;" class="animable"></path></g><g id="elpbrvjg91e6"><path d="M199.34,229.51a1.86,1.86,0,1,0,2.17-1.87A2,2,0,0,0,199.34,229.51Z" style="opacity: 0.2; transform-origin: 201.2px 229.483px;" class="animable"></path></g><path d="M211.52,230.13l-1.19,4.33c-2.57,4.42-6.18,2-6.18,2l-2.52-.14c-.86,0-1.24-1-.92-2.16l.81-3a3.79,3.79,0,0,1,2.58-2.77l2.34-.33a2.79,2.79,0,0,1,1.81.29Z" style="fill: rgb(181, 91, 82); transform-origin: 206.059px 232.569px;" id="elbg87ipsxa" class="animable"></path></g><defs>     <filter id="active" height="200%">         <feMorphology in="SourceAlpha" result="DILATED" operator="dilate" radius="2"></feMorphology>                <feFlood flood-color="#32DFEC" flood-opacity="1" result="PINK"></feFlood>        <feComposite in="PINK" in2="DILATED" operator="in" result="OUTLINE"></feComposite>        <feMerge>            <feMergeNode in="OUTLINE"></feMergeNode>            <feMergeNode in="SourceGraphic"></feMergeNode>        </feMerge>    </filter>    <filter id="hover" height="200%">        <feMorphology in="SourceAlpha" result="DILATED" operator="dilate" radius="2"></feMorphology>                <feFlood flood-color="#ff0000" flood-opacity="0.5" result="PINK"></feFlood>        <feComposite in="PINK" in2="DILATED" operator="in" result="OUTLINE"></feComposite>        <feMerge>            <feMergeNode in="OUTLINE"></feMergeNode>            <feMergeNode in="SourceGraphic"></feMergeNode>        </feMerge>            <feColorMatrix type="matrix" values="0   0   0   0   0                0   1   0   0   0                0   0   0   0   0                0   0   0   1   0 "></feColorMatrix>    </filter></defs></svg>